<svg width="1363" height="163" viewBox="0 0 1363 163" fill="none" xmlns="http://www.w3.org/2000/svg">
<path d="M0 15C0 6.71573 6.71573 0 15 0H37V163H15C6.71573 163 0 156.284 0 148V15Z" fill="#FFD21C"/>
<rect width="1097" height="163" transform="translate(37)" fill="#F0F0F0"/>
<path d="M101.906 53.9219L94.3945 51.2383V48.0859L104.602 52.375V54.6367L101.906 53.9219ZM94.3945 56.1719L101.918 53.4297L104.602 52.7852V55.0352L94.3945 59.3242V56.1719ZM114.504 43.9375H117.48L121.863 56.4648L126.246 43.9375H129.223L123.059 61H120.668L114.504 43.9375ZM112.898 43.9375H115.863L116.402 56.1484V61H112.898V43.9375ZM127.863 43.9375H130.84V61H127.324V56.1484L127.863 43.9375ZM140.555 58.1406V52.4922C140.555 52.0859 140.488 51.7383 140.355 51.4492C140.223 51.1523 140.016 50.9219 139.734 50.7578C139.461 50.5938 139.105 50.5117 138.668 50.5117C138.293 50.5117 137.969 50.5781 137.695 50.7109C137.422 50.8359 137.211 51.0195 137.062 51.2617C136.914 51.4961 136.84 51.7734 136.84 52.0938H133.465C133.465 51.5547 133.59 51.043 133.84 50.5586C134.09 50.0742 134.453 49.6484 134.93 49.2812C135.406 48.9062 135.973 48.6133 136.629 48.4023C137.293 48.1914 138.035 48.0859 138.855 48.0859C139.84 48.0859 140.715 48.25 141.48 48.5781C142.246 48.9062 142.848 49.3984 143.285 50.0547C143.73 50.7109 143.953 51.5312 143.953 52.5156V57.9414C143.953 58.6367 143.996 59.207 144.082 59.6523C144.168 60.0898 144.293 60.4727 144.457 60.8008V61H141.047C140.883 60.6562 140.758 60.2266 140.672 59.7109C140.594 59.1875 140.555 58.6641 140.555 58.1406ZM141 53.2773L141.023 55.1875H139.137C138.691 55.1875 138.305 55.2383 137.977 55.3398C137.648 55.4414 137.379 55.5859 137.168 55.7734C136.957 55.9531 136.801 56.1641 136.699 56.4062C136.605 56.6484 136.559 56.9141 136.559 57.2031C136.559 57.4922 136.625 57.7539 136.758 57.9883C136.891 58.2148 137.082 58.3945 137.332 58.5273C137.582 58.6523 137.875 58.7148 138.211 58.7148C138.719 58.7148 139.16 58.6133 139.535 58.4102C139.91 58.207 140.199 57.957 140.402 57.6602C140.613 57.3633 140.723 57.082 140.73 56.8164L141.621 58.2461C141.496 58.5664 141.324 58.8984 141.105 59.2422C140.895 59.5859 140.625 59.9102 140.297 60.2148C139.969 60.5117 139.574 60.7578 139.113 60.9531C138.652 61.1406 138.105 61.2344 137.473 61.2344C136.668 61.2344 135.938 61.0742 135.281 60.7539C134.633 60.4258 134.117 59.9766 133.734 59.4062C133.359 58.8281 133.172 58.1719 133.172 57.4375C133.172 56.7734 133.297 56.1836 133.547 55.668C133.797 55.1523 134.164 54.7188 134.648 54.3672C135.141 54.0078 135.754 53.7383 136.488 53.5586C137.223 53.3711 138.074 53.2773 139.043 53.2773H141ZM149.93 50.9453V61H146.543V48.3203H149.719L149.93 50.9453ZM149.461 54.2148H148.523C148.523 53.332 148.629 52.5195 148.84 51.7773C149.059 51.0273 149.375 50.3789 149.789 49.832C150.211 49.2773 150.73 48.8477 151.348 48.543C151.965 48.2383 152.68 48.0859 153.492 48.0859C154.055 48.0859 154.57 48.1719 155.039 48.3438C155.508 48.5078 155.91 48.7695 156.246 49.1289C156.59 49.4805 156.855 49.9414 157.043 50.5117C157.23 51.0742 157.324 51.75 157.324 52.5391V61H153.949V52.9141C153.949 52.3359 153.871 51.8906 153.715 51.5781C153.559 51.2656 153.336 51.0469 153.047 50.9219C152.766 50.7969 152.426 50.7344 152.027 50.7344C151.59 50.7344 151.207 50.8242 150.879 51.0039C150.559 51.1836 150.293 51.4336 150.082 51.7539C149.871 52.0664 149.715 52.4336 149.613 52.8555C149.512 53.2773 149.461 53.7305 149.461 54.2148ZM157.008 53.8281L155.801 53.9805C155.801 53.1523 155.902 52.3828 156.105 51.6719C156.316 50.9609 156.625 50.3359 157.031 49.7969C157.445 49.2578 157.957 48.8398 158.566 48.543C159.176 48.2383 159.879 48.0859 160.676 48.0859C161.285 48.0859 161.84 48.1758 162.34 48.3555C162.84 48.5273 163.266 48.8047 163.617 49.1875C163.977 49.5625 164.25 50.0547 164.438 50.6641C164.633 51.2734 164.73 52.0195 164.73 52.9023V61H161.344V52.9023C161.344 52.3164 161.266 51.8711 161.109 51.5664C160.961 51.2539 160.742 51.0391 160.453 50.9219C160.172 50.7969 159.836 50.7344 159.445 50.7344C159.039 50.7344 158.684 50.8164 158.379 50.9805C158.074 51.1367 157.82 51.3555 157.617 51.6367C157.414 51.918 157.262 52.2461 157.16 52.6211C157.059 52.9883 157.008 53.3906 157.008 53.8281ZM174.188 58.1406V52.4922C174.188 52.0859 174.121 51.7383 173.988 51.4492C173.855 51.1523 173.648 50.9219 173.367 50.7578C173.094 50.5938 172.738 50.5117 172.301 50.5117C171.926 50.5117 171.602 50.5781 171.328 50.7109C171.055 50.8359 170.844 51.0195 170.695 51.2617C170.547 51.4961 170.473 51.7734 170.473 52.0938H167.098C167.098 51.5547 167.223 51.043 167.473 50.5586C167.723 50.0742 168.086 49.6484 168.562 49.2812C169.039 48.9062 169.605 48.6133 170.262 48.4023C170.926 48.1914 171.668 48.0859 172.488 48.0859C173.473 48.0859 174.348 48.25 175.113 48.5781C175.879 48.9062 176.48 49.3984 176.918 50.0547C177.363 50.7109 177.586 51.5312 177.586 52.5156V57.9414C177.586 58.6367 177.629 59.207 177.715 59.6523C177.801 60.0898 177.926 60.4727 178.09 60.8008V61H174.68C174.516 60.6562 174.391 60.2266 174.305 59.7109C174.227 59.1875 174.188 58.6641 174.188 58.1406ZM174.633 53.2773L174.656 55.1875H172.77C172.324 55.1875 171.938 55.2383 171.609 55.3398C171.281 55.4414 171.012 55.5859 170.801 55.7734C170.59 55.9531 170.434 56.1641 170.332 56.4062C170.238 56.6484 170.191 56.9141 170.191 57.2031C170.191 57.4922 170.258 57.7539 170.391 57.9883C170.523 58.2148 170.715 58.3945 170.965 58.5273C171.215 58.6523 171.508 58.7148 171.844 58.7148C172.352 58.7148 172.793 58.6133 173.168 58.4102C173.543 58.207 173.832 57.957 174.035 57.6602C174.246 57.3633 174.355 57.082 174.363 56.8164L175.254 58.2461C175.129 58.5664 174.957 58.8984 174.738 59.2422C174.527 59.5859 174.258 59.9102 173.93 60.2148C173.602 60.5117 173.207 60.7578 172.746 60.9531C172.285 61.1406 171.738 61.2344 171.105 61.2344C170.301 61.2344 169.57 61.0742 168.914 60.7539C168.266 60.4258 167.75 59.9766 167.367 59.4062C166.992 58.8281 166.805 58.1719 166.805 57.4375C166.805 56.7734 166.93 56.1836 167.18 55.668C167.43 55.1523 167.797 54.7188 168.281 54.3672C168.773 54.0078 169.387 53.7383 170.121 53.5586C170.855 53.3711 171.707 53.2773 172.676 53.2773H174.633ZM182.871 43V44.7812C182.871 45.2891 182.773 45.8125 182.578 46.3516C182.391 46.8906 182.137 47.4023 181.816 47.8867C181.496 48.3633 181.145 48.7695 180.762 49.1055L179.18 48.1914C179.469 47.7305 179.715 47.2305 179.918 46.6914C180.121 46.1445 180.223 45.5117 180.223 44.793V43H182.871ZM189.879 57.4961C189.879 57.2539 189.809 57.0352 189.668 56.8398C189.527 56.6445 189.266 56.4648 188.883 56.3008C188.508 56.1289 187.965 55.9727 187.254 55.832C186.613 55.6914 186.016 55.5156 185.461 55.3047C184.914 55.0859 184.438 54.8242 184.031 54.5195C183.633 54.2148 183.32 53.8555 183.094 53.4414C182.867 53.0195 182.754 52.5391 182.754 52C182.754 51.4688 182.867 50.9688 183.094 50.5C183.328 50.0312 183.66 49.6172 184.09 49.2578C184.527 48.8906 185.059 48.6055 185.684 48.4023C186.316 48.1914 187.027 48.0859 187.816 48.0859C188.918 48.0859 189.863 48.2617 190.652 48.6133C191.449 48.9648 192.059 49.4492 192.48 50.0664C192.91 50.6758 193.125 51.3711 193.125 52.1523H189.75C189.75 51.8242 189.68 51.5312 189.539 51.2734C189.406 51.0078 189.195 50.8008 188.906 50.6523C188.625 50.4961 188.258 50.418 187.805 50.418C187.43 50.418 187.105 50.4844 186.832 50.6172C186.559 50.7422 186.348 50.9141 186.199 51.1328C186.059 51.3438 185.988 51.5781 185.988 51.8359C185.988 52.0312 186.027 52.207 186.105 52.3633C186.191 52.5117 186.328 52.6484 186.516 52.7734C186.703 52.8984 186.945 53.0156 187.242 53.125C187.547 53.2266 187.922 53.3203 188.367 53.4062C189.281 53.5938 190.098 53.8398 190.816 54.1445C191.535 54.4414 192.105 54.8477 192.527 55.3633C192.949 55.8711 193.16 56.5391 193.16 57.3672C193.16 57.9297 193.035 58.4453 192.785 58.9141C192.535 59.3828 192.176 59.793 191.707 60.1445C191.238 60.4883 190.676 60.7578 190.02 60.9531C189.371 61.1406 188.641 61.2344 187.828 61.2344C186.648 61.2344 185.648 61.0234 184.828 60.6016C184.016 60.1797 183.398 59.6445 182.977 58.9961C182.562 58.3398 182.355 57.668 182.355 56.9805H185.555C185.57 57.4414 185.688 57.8125 185.906 58.0938C186.133 58.375 186.418 58.5781 186.762 58.7031C187.113 58.8281 187.492 58.8906 187.898 58.8906C188.336 58.8906 188.699 58.832 188.988 58.7148C189.277 58.5898 189.496 58.4258 189.645 58.2227C189.801 58.0117 189.879 57.7695 189.879 57.4961ZM205.055 43.9375V61H201.539V43.9375H205.055ZM215.273 43.9375L208.512 52.3633L204.609 56.5586L203.977 53.2305L206.613 49.6211L210.961 43.9375H215.273ZM211.277 61L206.25 53.1133L208.852 50.9336L215.438 61H211.277ZM220.148 48.3203V61H216.762V48.3203H220.148ZM216.551 45.0156C216.551 44.5234 216.723 44.1172 217.066 43.7969C217.41 43.4766 217.871 43.3164 218.449 43.3164C219.02 43.3164 219.477 43.4766 219.82 43.7969C220.172 44.1172 220.348 44.5234 220.348 45.0156C220.348 45.5078 220.172 45.9141 219.82 46.2344C219.477 46.5547 219.02 46.7148 218.449 46.7148C217.871 46.7148 217.41 46.5547 217.066 46.2344C216.723 45.9141 216.551 45.5078 216.551 45.0156ZM229.148 48.3203V50.7109H221.766V48.3203H229.148ZM223.594 45.1914H226.969V57.1797C226.969 57.5469 227.016 57.8281 227.109 58.0234C227.211 58.2188 227.359 58.3555 227.555 58.4336C227.75 58.5039 227.996 58.5391 228.293 58.5391C228.504 58.5391 228.691 58.5312 228.855 58.5156C229.027 58.4922 229.172 58.4688 229.289 58.4453L229.301 60.9297C229.012 61.0234 228.699 61.0977 228.363 61.1523C228.027 61.207 227.656 61.2344 227.25 61.2344C226.508 61.2344 225.859 61.1133 225.305 60.8711C224.758 60.6211 224.336 60.2227 224.039 59.6758C223.742 59.1289 223.594 58.4102 223.594 57.5195V45.1914ZM236.309 58.5977C236.723 58.5977 237.09 58.5195 237.41 58.3633C237.73 58.1992 237.98 57.9727 238.16 57.6836C238.348 57.3867 238.445 57.0391 238.453 56.6406H241.629C241.621 57.5312 241.383 58.3242 240.914 59.0195C240.445 59.707 239.816 60.25 239.027 60.6484C238.238 61.0391 237.355 61.2344 236.379 61.2344C235.395 61.2344 234.535 61.0703 233.801 60.7422C233.074 60.4141 232.469 59.9609 231.984 59.3828C231.5 58.7969 231.137 58.1172 230.895 57.3438C230.652 56.5625 230.531 55.7266 230.531 54.8359V54.4961C230.531 53.5977 230.652 52.7617 230.895 51.9883C231.137 51.207 231.5 50.5273 231.984 49.9492C232.469 49.3633 233.074 48.9062 233.801 48.5781C234.527 48.25 235.379 48.0859 236.355 48.0859C237.395 48.0859 238.305 48.2852 239.086 48.6836C239.875 49.082 240.492 49.6523 240.938 50.3945C241.391 51.1289 241.621 52 241.629 53.0078H238.453C238.445 52.5859 238.355 52.2031 238.184 51.8594C238.02 51.5156 237.777 51.2422 237.457 51.0391C237.145 50.8281 236.758 50.7227 236.297 50.7227C235.805 50.7227 235.402 50.8281 235.09 51.0391C234.777 51.2422 234.535 51.5234 234.363 51.8828C234.191 52.2344 234.07 52.6367 234 53.0898C233.938 53.5352 233.906 54.0039 233.906 54.4961V54.8359C233.906 55.3281 233.938 55.8008 234 56.2539C234.062 56.707 234.18 57.1094 234.352 57.4609C234.531 57.8125 234.777 58.0898 235.09 58.293C235.402 58.4961 235.809 58.5977 236.309 58.5977ZM246.879 43V61H243.504V43H246.879ZM246.398 54.2148H245.473C245.48 53.332 245.598 52.5195 245.824 51.7773C246.051 51.0273 246.375 50.3789 246.797 49.832C247.219 49.2773 247.723 48.8477 248.309 48.543C248.902 48.2383 249.559 48.0859 250.277 48.0859C250.902 48.0859 251.469 48.1758 251.977 48.3555C252.492 48.5273 252.934 48.8086 253.301 49.1992C253.676 49.582 253.965 50.0859 254.168 50.7109C254.371 51.3359 254.473 52.0938 254.473 52.9844V61H251.074V52.9609C251.074 52.3984 250.992 51.957 250.828 51.6367C250.672 51.3086 250.441 51.0781 250.137 50.9453C249.84 50.8047 249.473 50.7344 249.035 50.7344C248.551 50.7344 248.137 50.8242 247.793 51.0039C247.457 51.1836 247.188 51.4336 246.984 51.7539C246.781 52.0664 246.633 52.4336 246.539 52.8555C246.445 53.2773 246.398 53.7305 246.398 54.2148ZM262.875 61.2344C261.891 61.2344 261.008 61.0781 260.227 60.7656C259.445 60.4453 258.781 60.0039 258.234 59.4414C257.695 58.8789 257.281 58.2266 256.992 57.4844C256.703 56.7344 256.559 55.9375 256.559 55.0938V54.625C256.559 53.6641 256.695 52.7852 256.969 51.9883C257.242 51.1914 257.633 50.5 258.141 49.9141C258.656 49.3281 259.281 48.8789 260.016 48.5664C260.75 48.2461 261.578 48.0859 262.5 48.0859C263.398 48.0859 264.195 48.2344 264.891 48.5312C265.586 48.8281 266.168 49.25 266.637 49.7969C267.113 50.3438 267.473 51 267.715 51.7656C267.957 52.5234 268.078 53.3672 268.078 54.2969V55.7031H258V53.4531H264.762V53.1953C264.762 52.7266 264.676 52.3086 264.504 51.9414C264.34 51.5664 264.09 51.2695 263.754 51.0508C263.418 50.832 262.988 50.7227 262.465 50.7227C262.02 50.7227 261.637 50.8203 261.316 51.0156C260.996 51.2109 260.734 51.4844 260.531 51.8359C260.336 52.1875 260.188 52.6016 260.086 53.0781C259.992 53.5469 259.945 54.0625 259.945 54.625V55.0938C259.945 55.6016 260.016 56.0703 260.156 56.5C260.305 56.9297 260.512 57.3008 260.777 57.6133C261.051 57.9258 261.379 58.168 261.762 58.3398C262.152 58.5117 262.594 58.5977 263.086 58.5977C263.695 58.5977 264.262 58.4805 264.785 58.2461C265.316 58.0039 265.773 57.6406 266.156 57.1562L267.797 58.9375C267.531 59.3203 267.168 59.6875 266.707 60.0391C266.254 60.3906 265.707 60.6797 265.066 60.9062C264.426 61.125 263.695 61.2344 262.875 61.2344ZM273.305 51.0273V61H269.93V48.3203H273.094L273.305 51.0273ZM272.812 54.2148H271.898C271.898 53.2773 272.02 52.4336 272.262 51.6836C272.504 50.9258 272.844 50.2812 273.281 49.75C273.719 49.2109 274.238 48.8008 274.84 48.5195C275.449 48.2305 276.129 48.0859 276.879 48.0859C277.473 48.0859 278.016 48.1719 278.508 48.3438C279 48.5156 279.422 48.7891 279.773 49.1641C280.133 49.5391 280.406 50.0352 280.594 50.6523C280.789 51.2695 280.887 52.0234 280.887 52.9141V61H277.488V52.9023C277.488 52.3398 277.41 51.9023 277.254 51.5898C277.098 51.2773 276.867 51.0586 276.562 50.9336C276.266 50.8008 275.898 50.7344 275.461 50.7344C275.008 50.7344 274.613 50.8242 274.277 51.0039C273.949 51.1836 273.676 51.4336 273.457 51.7539C273.246 52.0664 273.086 52.4336 272.977 52.8555C272.867 53.2773 272.812 53.7305 272.812 54.2148Z" fill="#888888"/>
<path d="M109.219 107.422H100.734V101.07H109.219C110.375 101.07 111.312 100.875 112.031 100.484C112.75 100.094 113.273 99.5547 113.602 98.8672C113.945 98.1641 114.117 97.375 114.117 96.5C114.117 95.5625 113.945 94.6953 113.602 93.8984C113.273 93.1016 112.75 92.4609 112.031 91.9766C111.312 91.4766 110.375 91.2266 109.219 91.2266H103.828V119H95.6016V84.875H109.219C111.953 84.875 114.305 85.375 116.273 86.375C118.258 87.375 119.781 88.75 120.844 90.5C121.906 92.2344 122.438 94.2188 122.438 96.4531C122.438 98.6562 121.906 100.578 120.844 102.219C119.781 103.859 118.258 105.141 116.273 106.062C114.305 106.969 111.953 107.422 109.219 107.422ZM134.461 99.9219V119H126.562V93.6406H133.945L134.461 99.9219ZM141.961 93.4531L141.82 100.789C141.508 100.758 141.086 100.719 140.555 100.672C140.023 100.625 139.578 100.602 139.219 100.602C138.297 100.602 137.5 100.711 136.828 100.93C136.172 101.133 135.625 101.445 135.188 101.867C134.766 102.273 134.453 102.789 134.25 103.414C134.062 104.039 133.977 104.766 133.992 105.594L132.562 104.656C132.562 102.953 132.727 101.406 133.055 100.016C133.398 98.6094 133.883 97.3984 134.508 96.3828C135.133 95.3516 135.891 94.5625 136.781 94.0156C137.672 93.4531 138.672 93.1719 139.781 93.1719C140.172 93.1719 140.555 93.1953 140.93 93.2422C141.32 93.2891 141.664 93.3594 141.961 93.4531ZM142.852 106.578V106.086C142.852 104.227 143.117 102.516 143.648 100.953C144.18 99.375 144.961 98.0078 145.992 96.8516C147.023 95.6953 148.297 94.7969 149.812 94.1562C151.328 93.5 153.078 93.1719 155.062 93.1719C157.062 93.1719 158.82 93.5 160.336 94.1562C161.867 94.7969 163.148 95.6953 164.18 96.8516C165.211 98.0078 165.992 99.375 166.523 100.953C167.055 102.516 167.32 104.227 167.32 106.086V106.578C167.32 108.422 167.055 110.133 166.523 111.711C165.992 113.273 165.211 114.641 164.18 115.812C163.148 116.969 161.875 117.867 160.359 118.508C158.844 119.148 157.094 119.469 155.109 119.469C153.125 119.469 151.367 119.148 149.836 118.508C148.305 117.867 147.023 116.969 145.992 115.812C144.961 114.641 144.18 113.273 143.648 111.711C143.117 110.133 142.852 108.422 142.852 106.578ZM150.75 106.086V106.578C150.75 107.531 150.82 108.422 150.961 109.25C151.102 110.078 151.336 110.805 151.664 111.43C151.992 112.039 152.438 112.516 153 112.859C153.562 113.203 154.266 113.375 155.109 113.375C155.938 113.375 156.625 113.203 157.172 112.859C157.734 112.516 158.18 112.039 158.508 111.43C158.836 110.805 159.07 110.078 159.211 109.25C159.352 108.422 159.422 107.531 159.422 106.578V106.086C159.422 105.164 159.352 104.297 159.211 103.484C159.07 102.656 158.836 101.93 158.508 101.305C158.18 100.664 157.734 100.164 157.172 99.8047C156.609 99.4453 155.906 99.2656 155.062 99.2656C154.234 99.2656 153.539 99.4453 152.977 99.8047C152.43 100.164 151.992 100.664 151.664 101.305C151.336 101.93 151.102 102.656 150.961 103.484C150.82 104.297 150.75 105.164 150.75 106.086ZM171.422 93.6406H179.344V119.82C179.344 121.852 178.953 123.562 178.172 124.953C177.391 126.359 176.273 127.422 174.82 128.141C173.367 128.875 171.633 129.242 169.617 129.242C168.945 129.242 168.328 129.211 167.766 129.148C167.188 129.102 166.555 129 165.867 128.844V122.867C166.273 122.93 166.648 122.977 166.992 123.008C167.336 123.055 167.711 123.078 168.117 123.078C168.836 123.078 169.438 122.961 169.922 122.727C170.406 122.492 170.773 122.133 171.023 121.648C171.289 121.164 171.422 120.555 171.422 119.82V93.6406ZM170.836 87.1016C170.836 85.9766 171.242 85.0547 172.055 84.3359C172.867 83.6172 173.922 83.2578 175.219 83.2578C176.516 83.2578 177.57 83.6172 178.383 84.3359C179.195 85.0547 179.602 85.9766 179.602 87.1016C179.602 88.2266 179.195 89.1484 178.383 89.8672C177.57 90.5859 176.516 90.9453 175.219 90.9453C173.922 90.9453 172.867 90.5859 172.055 89.8672C171.242 89.1484 170.836 88.2266 170.836 87.1016ZM196.102 119.469C194.039 119.469 192.195 119.148 190.57 118.508C188.945 117.852 187.57 116.953 186.445 115.812C185.336 114.672 184.484 113.359 183.891 111.875C183.312 110.391 183.023 108.82 183.023 107.164V106.273C183.023 104.414 183.281 102.695 183.797 101.117C184.312 99.5234 185.078 98.1328 186.094 96.9453C187.109 95.7578 188.383 94.8359 189.914 94.1797C191.445 93.5078 193.227 93.1719 195.258 93.1719C197.055 93.1719 198.664 93.4609 200.086 94.0391C201.508 94.6172 202.711 95.4453 203.695 96.5234C204.695 97.6016 205.453 98.9062 205.969 100.438C206.5 101.969 206.766 103.688 206.766 105.594V108.805H186.047V103.859H199.055V103.25C199.07 102.406 198.922 101.688 198.609 101.094C198.312 100.5 197.875 100.047 197.297 99.7344C196.719 99.4219 196.016 99.2656 195.188 99.2656C194.328 99.2656 193.617 99.4531 193.055 99.8281C192.508 100.203 192.078 100.719 191.766 101.375C191.469 102.016 191.258 102.758 191.133 103.602C191.008 104.445 190.945 105.336 190.945 106.273V107.164C190.945 108.102 191.07 108.953 191.32 109.719C191.586 110.484 191.961 111.141 192.445 111.688C192.945 112.219 193.539 112.633 194.227 112.93C194.93 113.227 195.727 113.375 196.617 113.375C197.695 113.375 198.758 113.172 199.805 112.766C200.852 112.359 201.75 111.688 202.5 110.75L206.086 115.016C205.57 115.75 204.836 116.461 203.883 117.148C202.945 117.836 201.82 118.398 200.508 118.836C199.195 119.258 197.727 119.469 196.102 119.469ZM220.688 113.375C221.422 113.375 222.047 113.242 222.562 112.977C223.094 112.695 223.492 112.305 223.758 111.805C224.039 111.289 224.172 110.672 224.156 109.953H231.586C231.602 111.859 231.133 113.531 230.18 114.969C229.242 116.391 227.961 117.5 226.336 118.297C224.727 119.078 222.906 119.469 220.875 119.469C218.891 119.469 217.156 119.148 215.672 118.508C214.188 117.852 212.945 116.945 211.945 115.789C210.961 114.617 210.219 113.25 209.719 111.688C209.234 110.125 208.992 108.43 208.992 106.602V106.062C208.992 104.234 209.234 102.539 209.719 100.977C210.219 99.3984 210.961 98.0312 211.945 96.875C212.945 95.7031 214.18 94.7969 215.648 94.1562C217.133 93.5 218.859 93.1719 220.828 93.1719C222.938 93.1719 224.797 93.5703 226.406 94.3672C228.031 95.1641 229.305 96.3203 230.227 97.8359C231.148 99.3516 231.602 101.188 231.586 103.344H224.156C224.172 102.578 224.055 101.891 223.805 101.281C223.555 100.672 223.164 100.188 222.633 99.8281C222.117 99.4531 221.453 99.2656 220.641 99.2656C219.828 99.2656 219.172 99.4453 218.672 99.8047C218.172 100.164 217.789 100.664 217.523 101.305C217.273 101.93 217.102 102.648 217.008 103.461C216.93 104.273 216.891 105.141 216.891 106.062V106.602C216.891 107.539 216.93 108.422 217.008 109.25C217.102 110.062 217.281 110.781 217.547 111.406C217.812 112.016 218.195 112.5 218.695 112.859C219.195 113.203 219.859 113.375 220.688 113.375ZM248.32 93.6406V99.125H233.039V93.6406H248.32ZM236.25 87.3359H244.148V110.727C244.148 111.398 244.227 111.922 244.383 112.297C244.539 112.656 244.805 112.914 245.18 113.07C245.57 113.211 246.086 113.281 246.727 113.281C247.18 113.281 247.555 113.273 247.852 113.258C248.148 113.227 248.43 113.188 248.695 113.141V118.789C248.023 119.008 247.32 119.172 246.586 119.281C245.852 119.406 245.07 119.469 244.242 119.469C242.555 119.469 241.109 119.203 239.906 118.672C238.719 118.141 237.812 117.305 237.188 116.164C236.562 115.023 236.25 113.539 236.25 111.711V87.3359ZM277.406 107.422H268.922V101.07H277.406C278.562 101.07 279.5 100.875 280.219 100.484C280.938 100.094 281.461 99.5547 281.789 98.8672C282.133 98.1641 282.305 97.375 282.305 96.5C282.305 95.5625 282.133 94.6953 281.789 93.8984C281.461 93.1016 280.938 92.4609 280.219 91.9766C279.5 91.4766 278.562 91.2266 277.406 91.2266H272.016V119H263.789V84.875H277.406C280.141 84.875 282.492 85.375 284.461 86.375C286.445 87.375 287.969 88.75 289.031 90.5C290.094 92.2344 290.625 94.2188 290.625 96.4531C290.625 98.6562 290.094 100.578 289.031 102.219C287.969 103.859 286.445 105.141 284.461 106.062C282.492 106.969 280.141 107.422 277.406 107.422ZM302.414 83V119H294.516V83H302.414ZM301.477 105.453L299.625 105.5C299.625 103.719 299.844 102.078 300.281 100.578C300.719 99.0781 301.344 97.7734 302.156 96.6641C302.969 95.5547 303.945 94.6953 305.086 94.0859C306.227 93.4766 307.492 93.1719 308.883 93.1719C310.133 93.1719 311.273 93.3516 312.305 93.7109C313.352 94.0703 314.25 94.6484 315 95.4453C315.766 96.2422 316.352 97.2812 316.758 98.5625C317.18 99.8438 317.391 101.406 317.391 103.25V119H309.445V103.203C309.445 102.172 309.297 101.375 309 100.812C308.719 100.234 308.312 99.8359 307.781 99.6172C307.25 99.3828 306.602 99.2656 305.836 99.2656C304.914 99.2656 304.164 99.4219 303.586 99.7344C303.008 100.047 302.562 100.484 302.25 101.047C301.953 101.594 301.75 102.242 301.641 102.992C301.531 103.742 301.477 104.562 301.477 105.453ZM330.117 93.6406V119H322.195V93.6406H330.117ZM321.727 87.1016C321.727 85.9766 322.133 85.0547 322.945 84.3359C323.758 83.6172 324.812 83.2578 326.109 83.2578C327.406 83.2578 328.461 83.6172 329.273 84.3359C330.086 85.0547 330.492 85.9766 330.492 87.1016C330.492 88.2266 330.086 89.1484 329.273 89.8672C328.461 90.5859 327.406 90.9453 326.109 90.9453C324.812 90.9453 323.758 90.5859 322.945 89.8672C322.133 89.1484 321.727 88.2266 321.727 87.1016ZM343.336 83V119H335.414V83H343.336ZM347.227 106.578V106.086C347.227 104.227 347.492 102.516 348.023 100.953C348.555 99.375 349.336 98.0078 350.367 96.8516C351.398 95.6953 352.672 94.7969 354.188 94.1562C355.703 93.5 357.453 93.1719 359.438 93.1719C361.438 93.1719 363.195 93.5 364.711 94.1562C366.242 94.7969 367.523 95.6953 368.555 96.8516C369.586 98.0078 370.367 99.375 370.898 100.953C371.43 102.516 371.695 104.227 371.695 106.086V106.578C371.695 108.422 371.43 110.133 370.898 111.711C370.367 113.273 369.586 114.641 368.555 115.812C367.523 116.969 366.25 117.867 364.734 118.508C363.219 119.148 361.469 119.469 359.484 119.469C357.5 119.469 355.742 119.148 354.211 118.508C352.68 117.867 351.398 116.969 350.367 115.812C349.336 114.641 348.555 113.273 348.023 111.711C347.492 110.133 347.227 108.422 347.227 106.578ZM355.125 106.086V106.578C355.125 107.531 355.195 108.422 355.336 109.25C355.477 110.078 355.711 110.805 356.039 111.43C356.367 112.039 356.812 112.516 357.375 112.859C357.938 113.203 358.641 113.375 359.484 113.375C360.312 113.375 361 113.203 361.547 112.859C362.109 112.516 362.555 112.039 362.883 111.43C363.211 110.805 363.445 110.078 363.586 109.25C363.727 108.422 363.797 107.531 363.797 106.578V106.086C363.797 105.164 363.727 104.297 363.586 103.484C363.445 102.656 363.211 101.93 362.883 101.305C362.555 100.664 362.109 100.164 361.547 99.8047C360.984 99.4453 360.281 99.2656 359.438 99.2656C358.609 99.2656 357.914 99.4453 357.352 99.8047C356.805 100.164 356.367 100.664 356.039 101.305C355.711 101.93 355.477 102.656 355.336 103.484C355.195 104.297 355.125 105.164 355.125 106.086ZM388.5 111.875C388.5 111.438 388.352 111.062 388.055 110.75C387.773 110.422 387.273 110.125 386.555 109.859C385.836 109.578 384.828 109.297 383.531 109.016C382.297 108.75 381.133 108.398 380.039 107.961C378.961 107.523 378.016 106.992 377.203 106.367C376.391 105.742 375.75 105 375.281 104.141C374.828 103.281 374.602 102.297 374.602 101.188C374.602 100.109 374.828 99.0938 375.281 98.1406C375.75 97.1719 376.43 96.3203 377.32 95.5859C378.227 94.8359 379.328 94.25 380.625 93.8281C381.922 93.3906 383.398 93.1719 385.055 93.1719C387.336 93.1719 389.305 93.5234 390.961 94.2266C392.617 94.9141 393.891 95.8828 394.781 97.1328C395.688 98.3672 396.141 99.7969 396.141 101.422H388.242C388.242 100.781 388.133 100.234 387.914 99.7812C387.711 99.3281 387.375 98.9844 386.906 98.75C386.438 98.5 385.812 98.375 385.031 98.375C384.484 98.375 383.984 98.4766 383.531 98.6797C383.094 98.8828 382.742 99.1641 382.477 99.5234C382.211 99.8828 382.078 100.305 382.078 100.789C382.078 101.133 382.156 101.445 382.312 101.727C382.484 101.992 382.742 102.242 383.086 102.477C383.43 102.695 383.867 102.898 384.398 103.086C384.93 103.258 385.57 103.414 386.32 103.555C388.023 103.867 389.617 104.312 391.102 104.891C392.586 105.469 393.789 106.289 394.711 107.352C395.648 108.414 396.117 109.844 396.117 111.641C396.117 112.766 395.859 113.805 395.344 114.758C394.828 115.695 394.086 116.523 393.117 117.242C392.148 117.945 390.984 118.492 389.625 118.883C388.266 119.273 386.734 119.469 385.031 119.469C382.609 119.469 380.562 119.039 378.891 118.18C377.219 117.305 375.953 116.211 375.094 114.898C374.25 113.57 373.828 112.227 373.828 110.867H381.188C381.219 111.648 381.406 112.289 381.75 112.789C382.109 113.289 382.586 113.656 383.18 113.891C383.773 114.125 384.461 114.242 385.242 114.242C385.961 114.242 386.555 114.141 387.023 113.938C387.508 113.734 387.875 113.461 388.125 113.117C388.375 112.758 388.5 112.344 388.5 111.875ZM398.836 106.578V106.086C398.836 104.227 399.102 102.516 399.633 100.953C400.164 99.375 400.945 98.0078 401.977 96.8516C403.008 95.6953 404.281 94.7969 405.797 94.1562C407.312 93.5 409.062 93.1719 411.047 93.1719C413.047 93.1719 414.805 93.5 416.32 94.1562C417.852 94.7969 419.133 95.6953 420.164 96.8516C421.195 98.0078 421.977 99.375 422.508 100.953C423.039 102.516 423.305 104.227 423.305 106.086V106.578C423.305 108.422 423.039 110.133 422.508 111.711C421.977 113.273 421.195 114.641 420.164 115.812C419.133 116.969 417.859 117.867 416.344 118.508C414.828 119.148 413.078 119.469 411.094 119.469C409.109 119.469 407.352 119.148 405.82 118.508C404.289 117.867 403.008 116.969 401.977 115.812C400.945 114.641 400.164 113.273 399.633 111.711C399.102 110.133 398.836 108.422 398.836 106.578ZM406.734 106.086V106.578C406.734 107.531 406.805 108.422 406.945 109.25C407.086 110.078 407.32 110.805 407.648 111.43C407.977 112.039 408.422 112.516 408.984 112.859C409.547 113.203 410.25 113.375 411.094 113.375C411.922 113.375 412.609 113.203 413.156 112.859C413.719 112.516 414.164 112.039 414.492 111.43C414.82 110.805 415.055 110.078 415.195 109.25C415.336 108.422 415.406 107.531 415.406 106.578V106.086C415.406 105.164 415.336 104.297 415.195 103.484C415.055 102.656 414.82 101.93 414.492 101.305C414.164 100.664 413.719 100.164 413.156 99.8047C412.594 99.4453 411.891 99.2656 411.047 99.2656C410.219 99.2656 409.523 99.4453 408.961 99.8047C408.414 100.164 407.977 100.664 407.648 101.305C407.32 101.93 407.086 102.656 406.945 103.484C406.805 104.297 406.734 105.164 406.734 106.086ZM434.789 98.5156V128.75H426.891V93.6406H434.25L434.789 98.5156ZM450.352 106.016V106.508C450.352 108.352 450.141 110.062 449.719 111.641C449.297 113.219 448.672 114.594 447.844 115.766C447.016 116.938 445.984 117.852 444.75 118.508C443.531 119.148 442.117 119.469 440.508 119.469C438.992 119.469 437.688 119.133 436.594 118.461C435.5 117.789 434.586 116.859 433.852 115.672C433.117 114.484 432.523 113.125 432.07 111.594C431.617 110.062 431.258 108.445 430.992 106.742V106.109C431.258 104.281 431.617 102.586 432.07 101.023C432.523 99.4453 433.117 98.0703 433.852 96.8984C434.586 95.7266 435.492 94.8125 436.57 94.1562C437.664 93.5 438.969 93.1719 440.484 93.1719C442.094 93.1719 443.508 93.4766 444.727 94.0859C445.961 94.6953 446.992 95.5703 447.82 96.7109C448.664 97.8359 449.297 99.1875 449.719 100.766C450.141 102.344 450.352 104.094 450.352 106.016ZM442.453 106.508V106.016C442.453 105.031 442.383 104.133 442.242 103.32C442.102 102.492 441.875 101.773 441.562 101.164C441.266 100.555 440.867 100.086 440.367 99.7578C439.867 99.4297 439.25 99.2656 438.516 99.2656C437.672 99.2656 436.961 99.3984 436.383 99.6641C435.82 99.9141 435.367 100.305 435.023 100.836C434.695 101.352 434.461 102 434.32 102.781C434.195 103.547 434.141 104.445 434.156 105.477V107.398C434.125 108.586 434.242 109.633 434.508 110.539C434.773 111.43 435.234 112.125 435.891 112.625C436.547 113.125 437.438 113.375 438.562 113.375C439.312 113.375 439.938 113.203 440.438 112.859C440.938 112.5 441.336 112.008 441.633 111.383C441.93 110.742 442.141 110.008 442.266 109.18C442.391 108.352 442.453 107.461 442.453 106.508ZM461.602 83V119H453.703V83H461.602ZM460.664 105.453L458.812 105.5C458.812 103.719 459.031 102.078 459.469 100.578C459.906 99.0781 460.531 97.7734 461.344 96.6641C462.156 95.5547 463.133 94.6953 464.273 94.0859C465.414 93.4766 466.68 93.1719 468.07 93.1719C469.32 93.1719 470.461 93.3516 471.492 93.7109C472.539 94.0703 473.438 94.6484 474.188 95.4453C474.953 96.2422 475.539 97.2812 475.945 98.5625C476.367 99.8438 476.578 101.406 476.578 103.25V119H468.633V103.203C468.633 102.172 468.484 101.375 468.188 100.812C467.906 100.234 467.5 99.8359 466.969 99.6172C466.438 99.3828 465.789 99.2656 465.023 99.2656C464.102 99.2656 463.352 99.4219 462.773 99.7344C462.195 100.047 461.75 100.484 461.438 101.047C461.141 101.594 460.938 102.242 460.828 102.992C460.719 103.742 460.664 104.562 460.664 105.453ZM488.742 116.023L495.305 93.6406H503.789L493.594 122.773C493.375 123.414 493.086 124.102 492.727 124.836C492.367 125.586 491.875 126.297 491.25 126.969C490.625 127.641 489.82 128.188 488.836 128.609C487.867 129.031 486.664 129.242 485.227 129.242C484.461 129.242 483.898 129.203 483.539 129.125C483.195 129.062 482.664 128.945 481.945 128.773V123.125C482.148 123.125 482.32 123.125 482.461 123.125C482.617 123.125 482.789 123.125 482.977 123.125C483.82 123.125 484.492 123.039 484.992 122.867C485.508 122.695 485.898 122.445 486.164 122.117C486.445 121.789 486.664 121.391 486.82 120.922L488.742 116.023ZM487.078 93.6406L492.07 111.383L492.938 119.75H487.641L478.617 93.6406H487.078Z" fill="black"/>
<path d="M1134 0H1348C1356.28 0 1363 6.71573 1363 15V148C1363 156.284 1356.28 163 1348 163H1134V0Z" fill="#B20530"/>
<path d="M1234.26 103.786H1262.74V109.357H1234.26V103.786ZM1239.96 114.929H1257.04V120.5H1239.96V114.929ZM1248.5 42.5C1240.95 42.5 1233.71 45.4349 1228.37 50.6592C1223.03 55.8834 1220.03 62.969 1220.03 70.3571C1219.84 74.4057 1220.63 78.4412 1222.34 82.1315C1224.05 85.8219 1226.64 89.0616 1229.88 91.5843C1232.73 94.175 1234.26 95.6514 1234.26 98.2143H1239.96C1239.96 93.0886 1236.8 90.2193 1233.72 87.4614C1231.06 85.4676 1228.94 82.8658 1227.55 79.8838C1226.15 76.9019 1225.53 73.6308 1225.72 70.3571C1225.72 64.4466 1228.12 58.7781 1232.39 54.5988C1236.67 50.4194 1242.46 48.0714 1248.5 48.0714C1254.54 48.0714 1260.33 50.4194 1264.61 54.5988C1268.88 58.7781 1271.28 64.4466 1271.28 70.3571C1271.47 73.6333 1270.84 76.9059 1269.44 79.888C1268.04 82.8701 1265.92 85.4706 1263.25 87.4614C1260.2 90.2471 1257.04 93.0329 1257.04 98.2143H1262.74C1262.74 95.6514 1264.25 94.175 1267.12 91.5564C1270.36 89.0381 1272.94 85.8031 1274.66 82.1176C1276.37 78.4321 1277.16 74.4014 1276.97 70.3571C1276.97 66.6989 1276.24 63.0765 1274.81 59.6967C1273.37 56.3169 1271.28 53.2459 1268.63 50.6592C1265.99 48.0724 1262.85 46.0205 1259.4 44.6205C1255.94 43.2205 1252.24 42.5 1248.5 42.5Z" fill="#FFD21C"/>
</svg>
