<svg width="1363" height="163" viewBox="0 0 1363 163" fill="none" xmlns="http://www.w3.org/2000/svg">
<path d="M0 15C0 6.71573 6.71573 0 15 0H37V163H15C6.71573 163 0 156.284 0 148V15Z" fill="#888888"/>
<rect width="1097" height="163" transform="translate(37)" fill="#F0F0F0"/>
<path d="M101.906 53.9219L94.3945 51.2383V48.0859L104.602 52.375V54.6367L101.906 53.9219ZM94.3945 56.1719L101.918 53.4297L104.602 52.7852V55.0352L94.3945 59.3242V56.1719ZM114.504 43.9375H117.48L121.863 56.4648L126.246 43.9375H129.223L123.059 61H120.668L114.504 43.9375ZM112.898 43.9375H115.863L116.402 56.1484V61H112.898V43.9375ZM127.863 43.9375H130.84V61H127.324V56.1484L127.863 43.9375ZM140.555 58.1406V52.4922C140.555 52.0859 140.488 51.7383 140.355 51.4492C140.223 51.1523 140.016 50.9219 139.734 50.7578C139.461 50.5938 139.105 50.5117 138.668 50.5117C138.293 50.5117 137.969 50.5781 137.695 50.7109C137.422 50.8359 137.211 51.0195 137.062 51.2617C136.914 51.4961 136.84 51.7734 136.84 52.0938H133.465C133.465 51.5547 133.59 51.043 133.84 50.5586C134.09 50.0742 134.453 49.6484 134.93 49.2812C135.406 48.9062 135.973 48.6133 136.629 48.4023C137.293 48.1914 138.035 48.0859 138.855 48.0859C139.84 48.0859 140.715 48.25 141.48 48.5781C142.246 48.9062 142.848 49.3984 143.285 50.0547C143.73 50.7109 143.953 51.5312 143.953 52.5156V57.9414C143.953 58.6367 143.996 59.207 144.082 59.6523C144.168 60.0898 144.293 60.4727 144.457 60.8008V61H141.047C140.883 60.6562 140.758 60.2266 140.672 59.7109C140.594 59.1875 140.555 58.6641 140.555 58.1406ZM141 53.2773L141.023 55.1875H139.137C138.691 55.1875 138.305 55.2383 137.977 55.3398C137.648 55.4414 137.379 55.5859 137.168 55.7734C136.957 55.9531 136.801 56.1641 136.699 56.4062C136.605 56.6484 136.559 56.9141 136.559 57.2031C136.559 57.4922 136.625 57.7539 136.758 57.9883C136.891 58.2148 137.082 58.3945 137.332 58.5273C137.582 58.6523 137.875 58.7148 138.211 58.7148C138.719 58.7148 139.16 58.6133 139.535 58.4102C139.91 58.207 140.199 57.957 140.402 57.6602C140.613 57.3633 140.723 57.082 140.73 56.8164L141.621 58.2461C141.496 58.5664 141.324 58.8984 141.105 59.2422C140.895 59.5859 140.625 59.9102 140.297 60.2148C139.969 60.5117 139.574 60.7578 139.113 60.9531C138.652 61.1406 138.105 61.2344 137.473 61.2344C136.668 61.2344 135.938 61.0742 135.281 60.7539C134.633 60.4258 134.117 59.9766 133.734 59.4062C133.359 58.8281 133.172 58.1719 133.172 57.4375C133.172 56.7734 133.297 56.1836 133.547 55.668C133.797 55.1523 134.164 54.7188 134.648 54.3672C135.141 54.0078 135.754 53.7383 136.488 53.5586C137.223 53.3711 138.074 53.2773 139.043 53.2773H141ZM149.93 50.9453V61H146.543V48.3203H149.719L149.93 50.9453ZM149.461 54.2148H148.523C148.523 53.332 148.629 52.5195 148.84 51.7773C149.059 51.0273 149.375 50.3789 149.789 49.832C150.211 49.2773 150.73 48.8477 151.348 48.543C151.965 48.2383 152.68 48.0859 153.492 48.0859C154.055 48.0859 154.57 48.1719 155.039 48.3438C155.508 48.5078 155.91 48.7695 156.246 49.1289C156.59 49.4805 156.855 49.9414 157.043 50.5117C157.23 51.0742 157.324 51.75 157.324 52.5391V61H153.949V52.9141C153.949 52.3359 153.871 51.8906 153.715 51.5781C153.559 51.2656 153.336 51.0469 153.047 50.9219C152.766 50.7969 152.426 50.7344 152.027 50.7344C151.59 50.7344 151.207 50.8242 150.879 51.0039C150.559 51.1836 150.293 51.4336 150.082 51.7539C149.871 52.0664 149.715 52.4336 149.613 52.8555C149.512 53.2773 149.461 53.7305 149.461 54.2148ZM157.008 53.8281L155.801 53.9805C155.801 53.1523 155.902 52.3828 156.105 51.6719C156.316 50.9609 156.625 50.3359 157.031 49.7969C157.445 49.2578 157.957 48.8398 158.566 48.543C159.176 48.2383 159.879 48.0859 160.676 48.0859C161.285 48.0859 161.84 48.1758 162.34 48.3555C162.84 48.5273 163.266 48.8047 163.617 49.1875C163.977 49.5625 164.25 50.0547 164.438 50.6641C164.633 51.2734 164.73 52.0195 164.73 52.9023V61H161.344V52.9023C161.344 52.3164 161.266 51.8711 161.109 51.5664C160.961 51.2539 160.742 51.0391 160.453 50.9219C160.172 50.7969 159.836 50.7344 159.445 50.7344C159.039 50.7344 158.684 50.8164 158.379 50.9805C158.074 51.1367 157.82 51.3555 157.617 51.6367C157.414 51.918 157.262 52.2461 157.16 52.6211C157.059 52.9883 157.008 53.3906 157.008 53.8281ZM174.188 58.1406V52.4922C174.188 52.0859 174.121 51.7383 173.988 51.4492C173.855 51.1523 173.648 50.9219 173.367 50.7578C173.094 50.5938 172.738 50.5117 172.301 50.5117C171.926 50.5117 171.602 50.5781 171.328 50.7109C171.055 50.8359 170.844 51.0195 170.695 51.2617C170.547 51.4961 170.473 51.7734 170.473 52.0938H167.098C167.098 51.5547 167.223 51.043 167.473 50.5586C167.723 50.0742 168.086 49.6484 168.562 49.2812C169.039 48.9062 169.605 48.6133 170.262 48.4023C170.926 48.1914 171.668 48.0859 172.488 48.0859C173.473 48.0859 174.348 48.25 175.113 48.5781C175.879 48.9062 176.48 49.3984 176.918 50.0547C177.363 50.7109 177.586 51.5312 177.586 52.5156V57.9414C177.586 58.6367 177.629 59.207 177.715 59.6523C177.801 60.0898 177.926 60.4727 178.09 60.8008V61H174.68C174.516 60.6562 174.391 60.2266 174.305 59.7109C174.227 59.1875 174.188 58.6641 174.188 58.1406ZM174.633 53.2773L174.656 55.1875H172.77C172.324 55.1875 171.938 55.2383 171.609 55.3398C171.281 55.4414 171.012 55.5859 170.801 55.7734C170.59 55.9531 170.434 56.1641 170.332 56.4062C170.238 56.6484 170.191 56.9141 170.191 57.2031C170.191 57.4922 170.258 57.7539 170.391 57.9883C170.523 58.2148 170.715 58.3945 170.965 58.5273C171.215 58.6523 171.508 58.7148 171.844 58.7148C172.352 58.7148 172.793 58.6133 173.168 58.4102C173.543 58.207 173.832 57.957 174.035 57.6602C174.246 57.3633 174.355 57.082 174.363 56.8164L175.254 58.2461C175.129 58.5664 174.957 58.8984 174.738 59.2422C174.527 59.5859 174.258 59.9102 173.93 60.2148C173.602 60.5117 173.207 60.7578 172.746 60.9531C172.285 61.1406 171.738 61.2344 171.105 61.2344C170.301 61.2344 169.57 61.0742 168.914 60.7539C168.266 60.4258 167.75 59.9766 167.367 59.4062C166.992 58.8281 166.805 58.1719 166.805 57.4375C166.805 56.7734 166.93 56.1836 167.18 55.668C167.43 55.1523 167.797 54.7188 168.281 54.3672C168.773 54.0078 169.387 53.7383 170.121 53.5586C170.855 53.3711 171.707 53.2773 172.676 53.2773H174.633ZM182.871 43V44.7812C182.871 45.2891 182.773 45.8125 182.578 46.3516C182.391 46.8906 182.137 47.4023 181.816 47.8867C181.496 48.3633 181.145 48.7695 180.762 49.1055L179.18 48.1914C179.469 47.7305 179.715 47.2305 179.918 46.6914C180.121 46.1445 180.223 45.5117 180.223 44.793V43H182.871ZM189.879 57.4961C189.879 57.2539 189.809 57.0352 189.668 56.8398C189.527 56.6445 189.266 56.4648 188.883 56.3008C188.508 56.1289 187.965 55.9727 187.254 55.832C186.613 55.6914 186.016 55.5156 185.461 55.3047C184.914 55.0859 184.438 54.8242 184.031 54.5195C183.633 54.2148 183.32 53.8555 183.094 53.4414C182.867 53.0195 182.754 52.5391 182.754 52C182.754 51.4688 182.867 50.9688 183.094 50.5C183.328 50.0312 183.66 49.6172 184.09 49.2578C184.527 48.8906 185.059 48.6055 185.684 48.4023C186.316 48.1914 187.027 48.0859 187.816 48.0859C188.918 48.0859 189.863 48.2617 190.652 48.6133C191.449 48.9648 192.059 49.4492 192.48 50.0664C192.91 50.6758 193.125 51.3711 193.125 52.1523H189.75C189.75 51.8242 189.68 51.5312 189.539 51.2734C189.406 51.0078 189.195 50.8008 188.906 50.6523C188.625 50.4961 188.258 50.418 187.805 50.418C187.43 50.418 187.105 50.4844 186.832 50.6172C186.559 50.7422 186.348 50.9141 186.199 51.1328C186.059 51.3438 185.988 51.5781 185.988 51.8359C185.988 52.0312 186.027 52.207 186.105 52.3633C186.191 52.5117 186.328 52.6484 186.516 52.7734C186.703 52.8984 186.945 53.0156 187.242 53.125C187.547 53.2266 187.922 53.3203 188.367 53.4062C189.281 53.5938 190.098 53.8398 190.816 54.1445C191.535 54.4414 192.105 54.8477 192.527 55.3633C192.949 55.8711 193.16 56.5391 193.16 57.3672C193.16 57.9297 193.035 58.4453 192.785 58.9141C192.535 59.3828 192.176 59.793 191.707 60.1445C191.238 60.4883 190.676 60.7578 190.02 60.9531C189.371 61.1406 188.641 61.2344 187.828 61.2344C186.648 61.2344 185.648 61.0234 184.828 60.6016C184.016 60.1797 183.398 59.6445 182.977 58.9961C182.562 58.3398 182.355 57.668 182.355 56.9805H185.555C185.57 57.4414 185.688 57.8125 185.906 58.0938C186.133 58.375 186.418 58.5781 186.762 58.7031C187.113 58.8281 187.492 58.8906 187.898 58.8906C188.336 58.8906 188.699 58.832 188.988 58.7148C189.277 58.5898 189.496 58.4258 189.645 58.2227C189.801 58.0117 189.879 57.7695 189.879 57.4961ZM205.055 43.9375V61H201.539V43.9375H205.055ZM215.273 43.9375L208.512 52.3633L204.609 56.5586L203.977 53.2305L206.613 49.6211L210.961 43.9375H215.273ZM211.277 61L206.25 53.1133L208.852 50.9336L215.438 61H211.277ZM220.148 48.3203V61H216.762V48.3203H220.148ZM216.551 45.0156C216.551 44.5234 216.723 44.1172 217.066 43.7969C217.41 43.4766 217.871 43.3164 218.449 43.3164C219.02 43.3164 219.477 43.4766 219.82 43.7969C220.172 44.1172 220.348 44.5234 220.348 45.0156C220.348 45.5078 220.172 45.9141 219.82 46.2344C219.477 46.5547 219.02 46.7148 218.449 46.7148C217.871 46.7148 217.41 46.5547 217.066 46.2344C216.723 45.9141 216.551 45.5078 216.551 45.0156ZM229.148 48.3203V50.7109H221.766V48.3203H229.148ZM223.594 45.1914H226.969V57.1797C226.969 57.5469 227.016 57.8281 227.109 58.0234C227.211 58.2188 227.359 58.3555 227.555 58.4336C227.75 58.5039 227.996 58.5391 228.293 58.5391C228.504 58.5391 228.691 58.5312 228.855 58.5156C229.027 58.4922 229.172 58.4688 229.289 58.4453L229.301 60.9297C229.012 61.0234 228.699 61.0977 228.363 61.1523C228.027 61.207 227.656 61.2344 227.25 61.2344C226.508 61.2344 225.859 61.1133 225.305 60.8711C224.758 60.6211 224.336 60.2227 224.039 59.6758C223.742 59.1289 223.594 58.4102 223.594 57.5195V45.1914ZM236.309 58.5977C236.723 58.5977 237.09 58.5195 237.41 58.3633C237.73 58.1992 237.98 57.9727 238.16 57.6836C238.348 57.3867 238.445 57.0391 238.453 56.6406H241.629C241.621 57.5312 241.383 58.3242 240.914 59.0195C240.445 59.707 239.816 60.25 239.027 60.6484C238.238 61.0391 237.355 61.2344 236.379 61.2344C235.395 61.2344 234.535 61.0703 233.801 60.7422C233.074 60.4141 232.469 59.9609 231.984 59.3828C231.5 58.7969 231.137 58.1172 230.895 57.3438C230.652 56.5625 230.531 55.7266 230.531 54.8359V54.4961C230.531 53.5977 230.652 52.7617 230.895 51.9883C231.137 51.207 231.5 50.5273 231.984 49.9492C232.469 49.3633 233.074 48.9062 233.801 48.5781C234.527 48.25 235.379 48.0859 236.355 48.0859C237.395 48.0859 238.305 48.2852 239.086 48.6836C239.875 49.082 240.492 49.6523 240.938 50.3945C241.391 51.1289 241.621 52 241.629 53.0078H238.453C238.445 52.5859 238.355 52.2031 238.184 51.8594C238.02 51.5156 237.777 51.2422 237.457 51.0391C237.145 50.8281 236.758 50.7227 236.297 50.7227C235.805 50.7227 235.402 50.8281 235.09 51.0391C234.777 51.2422 234.535 51.5234 234.363 51.8828C234.191 52.2344 234.07 52.6367 234 53.0898C233.938 53.5352 233.906 54.0039 233.906 54.4961V54.8359C233.906 55.3281 233.938 55.8008 234 56.2539C234.062 56.707 234.18 57.1094 234.352 57.4609C234.531 57.8125 234.777 58.0898 235.09 58.293C235.402 58.4961 235.809 58.5977 236.309 58.5977ZM246.879 43V61H243.504V43H246.879ZM246.398 54.2148H245.473C245.48 53.332 245.598 52.5195 245.824 51.7773C246.051 51.0273 246.375 50.3789 246.797 49.832C247.219 49.2773 247.723 48.8477 248.309 48.543C248.902 48.2383 249.559 48.0859 250.277 48.0859C250.902 48.0859 251.469 48.1758 251.977 48.3555C252.492 48.5273 252.934 48.8086 253.301 49.1992C253.676 49.582 253.965 50.0859 254.168 50.7109C254.371 51.3359 254.473 52.0938 254.473 52.9844V61H251.074V52.9609C251.074 52.3984 250.992 51.957 250.828 51.6367C250.672 51.3086 250.441 51.0781 250.137 50.9453C249.84 50.8047 249.473 50.7344 249.035 50.7344C248.551 50.7344 248.137 50.8242 247.793 51.0039C247.457 51.1836 247.188 51.4336 246.984 51.7539C246.781 52.0664 246.633 52.4336 246.539 52.8555C246.445 53.2773 246.398 53.7305 246.398 54.2148ZM262.875 61.2344C261.891 61.2344 261.008 61.0781 260.227 60.7656C259.445 60.4453 258.781 60.0039 258.234 59.4414C257.695 58.8789 257.281 58.2266 256.992 57.4844C256.703 56.7344 256.559 55.9375 256.559 55.0938V54.625C256.559 53.6641 256.695 52.7852 256.969 51.9883C257.242 51.1914 257.633 50.5 258.141 49.9141C258.656 49.3281 259.281 48.8789 260.016 48.5664C260.75 48.2461 261.578 48.0859 262.5 48.0859C263.398 48.0859 264.195 48.2344 264.891 48.5312C265.586 48.8281 266.168 49.25 266.637 49.7969C267.113 50.3438 267.473 51 267.715 51.7656C267.957 52.5234 268.078 53.3672 268.078 54.2969V55.7031H258V53.4531H264.762V53.1953C264.762 52.7266 264.676 52.3086 264.504 51.9414C264.34 51.5664 264.09 51.2695 263.754 51.0508C263.418 50.832 262.988 50.7227 262.465 50.7227C262.02 50.7227 261.637 50.8203 261.316 51.0156C260.996 51.2109 260.734 51.4844 260.531 51.8359C260.336 52.1875 260.188 52.6016 260.086 53.0781C259.992 53.5469 259.945 54.0625 259.945 54.625V55.0938C259.945 55.6016 260.016 56.0703 260.156 56.5C260.305 56.9297 260.512 57.3008 260.777 57.6133C261.051 57.9258 261.379 58.168 261.762 58.3398C262.152 58.5117 262.594 58.5977 263.086 58.5977C263.695 58.5977 264.262 58.4805 264.785 58.2461C265.316 58.0039 265.773 57.6406 266.156 57.1562L267.797 58.9375C267.531 59.3203 267.168 59.6875 266.707 60.0391C266.254 60.3906 265.707 60.6797 265.066 60.9062C264.426 61.125 263.695 61.2344 262.875 61.2344ZM273.305 51.0273V61H269.93V48.3203H273.094L273.305 51.0273ZM272.812 54.2148H271.898C271.898 53.2773 272.02 52.4336 272.262 51.6836C272.504 50.9258 272.844 50.2812 273.281 49.75C273.719 49.2109 274.238 48.8008 274.84 48.5195C275.449 48.2305 276.129 48.0859 276.879 48.0859C277.473 48.0859 278.016 48.1719 278.508 48.3438C279 48.5156 279.422 48.7891 279.773 49.1641C280.133 49.5391 280.406 50.0352 280.594 50.6523C280.789 51.2695 280.887 52.0234 280.887 52.9141V61H277.488V52.9023C277.488 52.3398 277.41 51.9023 277.254 51.5898C277.098 51.2773 276.867 51.0586 276.562 50.9336C276.266 50.8008 275.898 50.7344 275.461 50.7344C275.008 50.7344 274.613 50.8242 274.277 51.0039C273.949 51.1836 273.676 51.4336 273.457 51.7539C273.246 52.0664 273.086 52.4336 272.977 52.8555C272.867 53.2773 272.812 53.7305 272.812 54.2148Z" fill="#888888"/>
<path d="M112.125 84.875V119H103.898V84.875H112.125ZM122.391 84.875V91.2266H93.8672V84.875H122.391ZM135.68 119.469C133.617 119.469 131.773 119.148 130.148 118.508C128.523 117.852 127.148 116.953 126.023 115.812C124.914 114.672 124.062 113.359 123.469 111.875C122.891 110.391 122.602 108.82 122.602 107.164V106.273C122.602 104.414 122.859 102.695 123.375 101.117C123.891 99.5234 124.656 98.1328 125.672 96.9453C126.688 95.7578 127.961 94.8359 129.492 94.1797C131.023 93.5078 132.805 93.1719 134.836 93.1719C136.633 93.1719 138.242 93.4609 139.664 94.0391C141.086 94.6172 142.289 95.4453 143.273 96.5234C144.273 97.6016 145.031 98.9062 145.547 100.438C146.078 101.969 146.344 103.688 146.344 105.594V108.805H125.625V103.859H138.633V103.25C138.648 102.406 138.5 101.688 138.188 101.094C137.891 100.5 137.453 100.047 136.875 99.7344C136.297 99.4219 135.594 99.2656 134.766 99.2656C133.906 99.2656 133.195 99.4531 132.633 99.8281C132.086 100.203 131.656 100.719 131.344 101.375C131.047 102.016 130.836 102.758 130.711 103.602C130.586 104.445 130.523 105.336 130.523 106.273V107.164C130.523 108.102 130.648 108.953 130.898 109.719C131.164 110.484 131.539 111.141 132.023 111.688C132.523 112.219 133.117 112.633 133.805 112.93C134.508 113.227 135.305 113.375 136.195 113.375C137.273 113.375 138.336 113.172 139.383 112.766C140.43 112.359 141.328 111.688 142.078 110.75L145.664 115.016C145.148 115.75 144.414 116.461 143.461 117.148C142.523 117.836 141.398 118.398 140.086 118.836C138.773 119.258 137.305 119.469 135.68 119.469ZM160.266 113.375C161 113.375 161.625 113.242 162.141 112.977C162.672 112.695 163.07 112.305 163.336 111.805C163.617 111.289 163.75 110.672 163.734 109.953H171.164C171.18 111.859 170.711 113.531 169.758 114.969C168.82 116.391 167.539 117.5 165.914 118.297C164.305 119.078 162.484 119.469 160.453 119.469C158.469 119.469 156.734 119.148 155.25 118.508C153.766 117.852 152.523 116.945 151.523 115.789C150.539 114.617 149.797 113.25 149.297 111.688C148.812 110.125 148.57 108.43 148.57 106.602V106.062C148.57 104.234 148.812 102.539 149.297 100.977C149.797 99.3984 150.539 98.0312 151.523 96.875C152.523 95.7031 153.758 94.7969 155.227 94.1562C156.711 93.5 158.438 93.1719 160.406 93.1719C162.516 93.1719 164.375 93.5703 165.984 94.3672C167.609 95.1641 168.883 96.3203 169.805 97.8359C170.727 99.3516 171.18 101.188 171.164 103.344H163.734C163.75 102.578 163.633 101.891 163.383 101.281C163.133 100.672 162.742 100.188 162.211 99.8281C161.695 99.4531 161.031 99.2656 160.219 99.2656C159.406 99.2656 158.75 99.4453 158.25 99.8047C157.75 100.164 157.367 100.664 157.102 101.305C156.852 101.93 156.68 102.648 156.586 103.461C156.508 104.273 156.469 105.141 156.469 106.062V106.602C156.469 107.539 156.508 108.422 156.586 109.25C156.68 110.062 156.859 110.781 157.125 111.406C157.391 112.016 157.773 112.5 158.273 112.859C158.773 113.203 159.438 113.375 160.266 113.375ZM182.273 83V119H174.375V83H182.273ZM181.336 105.453L179.484 105.5C179.484 103.719 179.703 102.078 180.141 100.578C180.578 99.0781 181.203 97.7734 182.016 96.6641C182.828 95.5547 183.805 94.6953 184.945 94.0859C186.086 93.4766 187.352 93.1719 188.742 93.1719C189.992 93.1719 191.133 93.3516 192.164 93.7109C193.211 94.0703 194.109 94.6484 194.859 95.4453C195.625 96.2422 196.211 97.2812 196.617 98.5625C197.039 99.8438 197.25 101.406 197.25 103.25V119H189.305V103.203C189.305 102.172 189.156 101.375 188.859 100.812C188.578 100.234 188.172 99.8359 187.641 99.6172C187.109 99.3828 186.461 99.2656 185.695 99.2656C184.773 99.2656 184.023 99.4219 183.445 99.7344C182.867 100.047 182.422 100.484 182.109 101.047C181.812 101.594 181.609 102.242 181.5 102.992C181.391 103.742 181.336 104.562 181.336 105.453ZM231.539 109.93C231.539 109.398 231.461 108.922 231.305 108.5C231.148 108.062 230.859 107.656 230.438 107.281C230.016 106.906 229.406 106.531 228.609 106.156C227.828 105.766 226.797 105.359 225.516 104.938C224.016 104.438 222.57 103.875 221.18 103.25C219.789 102.609 218.547 101.867 217.453 101.023C216.359 100.164 215.492 99.1641 214.852 98.0234C214.211 96.8672 213.891 95.5234 213.891 93.9922C213.891 92.5234 214.219 91.2031 214.875 90.0312C215.531 88.8438 216.445 87.8359 217.617 87.0078C218.805 86.1641 220.195 85.5234 221.789 85.0859C223.383 84.6328 225.125 84.4062 227.016 84.4062C229.516 84.4062 231.719 84.8438 233.625 85.7188C235.547 86.5781 237.047 87.8047 238.125 89.3984C239.219 90.9766 239.766 92.8438 239.766 95H231.586C231.586 94.1406 231.406 93.3828 231.047 92.7266C230.703 92.0703 230.18 91.5547 229.477 91.1797C228.773 90.8047 227.891 90.6172 226.828 90.6172C225.797 90.6172 224.93 90.7734 224.227 91.0859C223.523 91.3984 222.992 91.8203 222.633 92.3516C222.273 92.8672 222.094 93.4375 222.094 94.0625C222.094 94.5781 222.234 95.0469 222.516 95.4688C222.812 95.875 223.227 96.2578 223.758 96.6172C224.305 96.9766 224.961 97.3203 225.727 97.6484C226.508 97.9766 227.383 98.2969 228.352 98.6094C230.164 99.1875 231.773 99.8359 233.18 100.555C234.602 101.258 235.797 102.062 236.766 102.969C237.75 103.859 238.492 104.875 238.992 106.016C239.508 107.156 239.766 108.445 239.766 109.883C239.766 111.414 239.469 112.773 238.875 113.961C238.281 115.148 237.43 116.156 236.32 116.984C235.211 117.797 233.883 118.414 232.336 118.836C230.789 119.258 229.062 119.469 227.156 119.469C225.406 119.469 223.68 119.25 221.977 118.812C220.289 118.359 218.758 117.672 217.383 116.75C216.008 115.812 214.906 114.617 214.078 113.164C213.266 111.695 212.859 109.953 212.859 107.938H221.109C221.109 108.938 221.242 109.781 221.508 110.469C221.773 111.156 222.164 111.711 222.68 112.133C223.195 112.539 223.828 112.836 224.578 113.023C225.328 113.195 226.188 113.281 227.156 113.281C228.203 113.281 229.047 113.133 229.688 112.836C230.328 112.523 230.797 112.117 231.094 111.617C231.391 111.102 231.539 110.539 231.539 109.93ZM256.992 93.6406V99.125H241.711V93.6406H256.992ZM244.922 87.3359H252.82V110.727C252.82 111.398 252.898 111.922 253.055 112.297C253.211 112.656 253.477 112.914 253.852 113.07C254.242 113.211 254.758 113.281 255.398 113.281C255.852 113.281 256.227 113.273 256.523 113.258C256.82 113.227 257.102 113.188 257.367 113.141V118.789C256.695 119.008 255.992 119.172 255.258 119.281C254.523 119.406 253.742 119.469 252.914 119.469C251.227 119.469 249.781 119.203 248.578 118.672C247.391 118.141 246.484 117.305 245.859 116.164C245.234 115.023 244.922 113.539 244.922 111.711V87.3359ZM273.305 112.625V102.172C273.305 101.453 273.203 100.836 273 100.32C272.797 99.8047 272.477 99.4062 272.039 99.125C271.602 98.8281 271.016 98.6797 270.281 98.6797C269.688 98.6797 269.18 98.7812 268.758 98.9844C268.336 99.1875 268.016 99.4922 267.797 99.8984C267.578 100.305 267.469 100.82 267.469 101.445H259.57C259.57 100.273 259.828 99.1875 260.344 98.1875C260.875 97.1719 261.625 96.2891 262.594 95.5391C263.578 94.7891 264.75 94.2109 266.109 93.8047C267.484 93.3828 269.016 93.1719 270.703 93.1719C272.719 93.1719 274.516 93.5078 276.094 94.1797C277.688 94.8516 278.945 95.8594 279.867 97.2031C280.789 98.5312 281.25 100.203 281.25 102.219V112.602C281.25 114.258 281.344 115.516 281.531 116.375C281.719 117.219 281.984 117.961 282.328 118.602V119H274.406C274.031 118.219 273.75 117.266 273.562 116.141C273.391 115 273.305 113.828 273.305 112.625ZM274.266 103.508L274.312 107.727H270.82C270.086 107.727 269.461 107.828 268.945 108.031C268.445 108.234 268.039 108.516 267.727 108.875C267.43 109.219 267.211 109.609 267.07 110.047C266.945 110.484 266.883 110.945 266.883 111.43C266.883 111.898 266.992 112.32 267.211 112.695C267.445 113.055 267.758 113.336 268.148 113.539C268.539 113.742 268.977 113.844 269.461 113.844C270.336 113.844 271.078 113.68 271.688 113.352C272.312 113.008 272.789 112.594 273.117 112.109C273.445 111.625 273.609 111.172 273.609 110.75L275.344 113.984C275.031 114.609 274.672 115.242 274.266 115.883C273.875 116.523 273.383 117.117 272.789 117.664C272.211 118.195 271.5 118.633 270.656 118.977C269.812 119.305 268.789 119.469 267.586 119.469C266.023 119.469 264.586 119.148 263.273 118.508C261.977 117.867 260.938 116.977 260.156 115.836C259.375 114.68 258.984 113.352 258.984 111.852C258.984 110.539 259.219 109.367 259.688 108.336C260.172 107.305 260.898 106.43 261.867 105.711C262.836 104.992 264.07 104.445 265.57 104.07C267.07 103.695 268.836 103.508 270.867 103.508H274.266ZM296.344 113.375C297.078 113.375 297.703 113.242 298.219 112.977C298.75 112.695 299.148 112.305 299.414 111.805C299.695 111.289 299.828 110.672 299.812 109.953H307.242C307.258 111.859 306.789 113.531 305.836 114.969C304.898 116.391 303.617 117.5 301.992 118.297C300.383 119.078 298.562 119.469 296.531 119.469C294.547 119.469 292.812 119.148 291.328 118.508C289.844 117.852 288.602 116.945 287.602 115.789C286.617 114.617 285.875 113.25 285.375 111.688C284.891 110.125 284.648 108.43 284.648 106.602V106.062C284.648 104.234 284.891 102.539 285.375 100.977C285.875 99.3984 286.617 98.0312 287.602 96.875C288.602 95.7031 289.836 94.7969 291.305 94.1562C292.789 93.5 294.516 93.1719 296.484 93.1719C298.594 93.1719 300.453 93.5703 302.062 94.3672C303.688 95.1641 304.961 96.3203 305.883 97.8359C306.805 99.3516 307.258 101.188 307.242 103.344H299.812C299.828 102.578 299.711 101.891 299.461 101.281C299.211 100.672 298.82 100.188 298.289 99.8281C297.773 99.4531 297.109 99.2656 296.297 99.2656C295.484 99.2656 294.828 99.4453 294.328 99.8047C293.828 100.164 293.445 100.664 293.18 101.305C292.93 101.93 292.758 102.648 292.664 103.461C292.586 104.273 292.547 105.141 292.547 106.062V106.602C292.547 107.539 292.586 108.422 292.664 109.25C292.758 110.062 292.938 110.781 293.203 111.406C293.469 112.016 293.852 112.5 294.352 112.859C294.852 113.203 295.516 113.375 296.344 113.375ZM318.586 82.9766V119H310.688V82.9766H318.586ZM334.805 93.6406L323.789 106.555L318.023 112.32L314.578 107.305L319.383 101.047L325.336 93.6406H334.805ZM326.344 119L319.57 107.445L325.406 103.297L335.391 119H326.344ZM350.156 111.875C350.156 111.438 350.008 111.062 349.711 110.75C349.43 110.422 348.93 110.125 348.211 109.859C347.492 109.578 346.484 109.297 345.188 109.016C343.953 108.75 342.789 108.398 341.695 107.961C340.617 107.523 339.672 106.992 338.859 106.367C338.047 105.742 337.406 105 336.938 104.141C336.484 103.281 336.258 102.297 336.258 101.188C336.258 100.109 336.484 99.0938 336.938 98.1406C337.406 97.1719 338.086 96.3203 338.977 95.5859C339.883 94.8359 340.984 94.25 342.281 93.8281C343.578 93.3906 345.055 93.1719 346.711 93.1719C348.992 93.1719 350.961 93.5234 352.617 94.2266C354.273 94.9141 355.547 95.8828 356.438 97.1328C357.344 98.3672 357.797 99.7969 357.797 101.422H349.898C349.898 100.781 349.789 100.234 349.57 99.7812C349.367 99.3281 349.031 98.9844 348.562 98.75C348.094 98.5 347.469 98.375 346.688 98.375C346.141 98.375 345.641 98.4766 345.188 98.6797C344.75 98.8828 344.398 99.1641 344.133 99.5234C343.867 99.8828 343.734 100.305 343.734 100.789C343.734 101.133 343.812 101.445 343.969 101.727C344.141 101.992 344.398 102.242 344.742 102.477C345.086 102.695 345.523 102.898 346.055 103.086C346.586 103.258 347.227 103.414 347.977 103.555C349.68 103.867 351.273 104.312 352.758 104.891C354.242 105.469 355.445 106.289 356.367 107.352C357.305 108.414 357.773 109.844 357.773 111.641C357.773 112.766 357.516 113.805 357 114.758C356.484 115.695 355.742 116.523 354.773 117.242C353.805 117.945 352.641 118.492 351.281 118.883C349.922 119.273 348.391 119.469 346.688 119.469C344.266 119.469 342.219 119.039 340.547 118.18C338.875 117.305 337.609 116.211 336.75 114.898C335.906 113.57 335.484 112.227 335.484 110.867H342.844C342.875 111.648 343.062 112.289 343.406 112.789C343.766 113.289 344.242 113.656 344.836 113.891C345.43 114.125 346.117 114.242 346.898 114.242C347.617 114.242 348.211 114.141 348.68 113.938C349.164 113.734 349.531 113.461 349.781 113.117C350.031 112.758 350.156 112.344 350.156 111.875Z" fill="black"/>
<path d="M1134 0H1348C1356.28 0 1363 6.71573 1363 15V148C1363 156.284 1356.28 163 1348 163H1134V0Z" fill="#B20530"/>
<path fill-rule="evenodd" clip-rule="evenodd" d="M1219.98 53C1219.85 53 1219.73 53.0527 1219.64 53.1464C1219.55 53.2402 1219.5 53.3674 1219.5 53.5V109.5C1219.5 109.633 1219.55 109.76 1219.64 109.854C1219.73 109.947 1219.85 110 1219.98 110H1277.02C1277.15 110 1277.27 109.947 1277.36 109.854C1277.45 109.76 1277.5 109.633 1277.5 109.5V64C1277.5 63.8674 1277.45 63.7402 1277.36 63.6464C1277.27 63.5527 1277.15 63.5 1277.02 63.5H1248.5C1247.65 63.5 1246.84 63.1045 1246.29 62.4206L1238.77 53H1219.98ZM1215.58 48.9038C1216.74 47.6848 1218.33 47 1219.98 47H1240.11C1240.97 47 1241.77 47.3955 1242.32 48.0794L1249.85 57.5H1277.02C1278.67 57.5 1280.26 58.1848 1281.42 59.4038C1282.59 60.6228 1283.25 62.2761 1283.25 64V109.5C1283.25 111.224 1282.59 112.877 1281.42 114.096C1280.26 115.315 1278.67 116 1277.02 116H1219.98C1218.33 116 1216.74 115.315 1215.58 114.096C1214.41 112.877 1213.75 111.224 1213.75 109.5V53.5C1213.75 51.7761 1214.41 50.1228 1215.58 48.9038Z" fill="white"/>
<path fill-rule="evenodd" clip-rule="evenodd" d="M1244.16 75.5251C1245.47 76.892 1245.47 79.108 1244.16 80.4749L1238.15 86.75L1244.16 93.0251C1245.47 94.392 1245.47 96.608 1244.16 97.9749C1242.85 99.3417 1240.73 99.3417 1239.42 97.9749L1231.03 89.2249C1229.72 87.858 1229.72 85.642 1231.03 84.2751L1239.42 75.5251C1240.73 74.1583 1242.85 74.1583 1244.16 75.5251Z" fill="white"/>
<path fill-rule="evenodd" clip-rule="evenodd" d="M1252.12 97.9749C1250.81 96.608 1250.81 94.392 1252.12 93.0251L1258.13 86.75L1252.12 80.4749C1250.81 79.108 1250.81 76.892 1252.12 75.5251C1253.43 74.1583 1255.55 74.1583 1256.86 75.5251L1265.25 84.2751C1266.56 85.642 1266.56 87.858 1265.25 89.2249L1256.86 97.9749C1255.55 99.3417 1253.43 99.3417 1252.12 97.9749Z" fill="white"/>
</svg>
