<svg width="1363" height="163" viewBox="0 0 1363 163" fill="none" xmlns="http://www.w3.org/2000/svg">
<path d="M0 15C0 6.71573 6.71573 0 15 0H37V163H15C6.71573 163 0 156.284 0 148V15Z" fill="#FFD21C"/>
<rect width="1097" height="163" transform="translate(37)" fill="#F0F0F0"/>
<path d="M101.906 53.9219L94.3945 51.2383V48.0859L104.602 52.375V54.6367L101.906 53.9219ZM94.3945 56.1719L101.918 53.4297L104.602 52.7852V55.0352L94.3945 59.3242V56.1719ZM114.504 43.9375H117.48L121.863 56.4648L126.246 43.9375H129.223L123.059 61H120.668L114.504 43.9375ZM112.898 43.9375H115.863L116.402 56.1484V61H112.898V43.9375ZM127.863 43.9375H130.84V61H127.324V56.1484L127.863 43.9375ZM140.555 58.1406V52.4922C140.555 52.0859 140.488 51.7383 140.355 51.4492C140.223 51.1523 140.016 50.9219 139.734 50.7578C139.461 50.5938 139.105 50.5117 138.668 50.5117C138.293 50.5117 137.969 50.5781 137.695 50.7109C137.422 50.8359 137.211 51.0195 137.062 51.2617C136.914 51.4961 136.84 51.7734 136.84 52.0938H133.465C133.465 51.5547 133.59 51.043 133.84 50.5586C134.09 50.0742 134.453 49.6484 134.93 49.2812C135.406 48.9062 135.973 48.6133 136.629 48.4023C137.293 48.1914 138.035 48.0859 138.855 48.0859C139.84 48.0859 140.715 48.25 141.48 48.5781C142.246 48.9062 142.848 49.3984 143.285 50.0547C143.73 50.7109 143.953 51.5312 143.953 52.5156V57.9414C143.953 58.6367 143.996 59.207 144.082 59.6523C144.168 60.0898 144.293 60.4727 144.457 60.8008V61H141.047C140.883 60.6562 140.758 60.2266 140.672 59.7109C140.594 59.1875 140.555 58.6641 140.555 58.1406ZM141 53.2773L141.023 55.1875H139.137C138.691 55.1875 138.305 55.2383 137.977 55.3398C137.648 55.4414 137.379 55.5859 137.168 55.7734C136.957 55.9531 136.801 56.1641 136.699 56.4062C136.605 56.6484 136.559 56.9141 136.559 57.2031C136.559 57.4922 136.625 57.7539 136.758 57.9883C136.891 58.2148 137.082 58.3945 137.332 58.5273C137.582 58.6523 137.875 58.7148 138.211 58.7148C138.719 58.7148 139.16 58.6133 139.535 58.4102C139.91 58.207 140.199 57.957 140.402 57.6602C140.613 57.3633 140.723 57.082 140.73 56.8164L141.621 58.2461C141.496 58.5664 141.324 58.8984 141.105 59.2422C140.895 59.5859 140.625 59.9102 140.297 60.2148C139.969 60.5117 139.574 60.7578 139.113 60.9531C138.652 61.1406 138.105 61.2344 137.473 61.2344C136.668 61.2344 135.938 61.0742 135.281 60.7539C134.633 60.4258 134.117 59.9766 133.734 59.4062C133.359 58.8281 133.172 58.1719 133.172 57.4375C133.172 56.7734 133.297 56.1836 133.547 55.668C133.797 55.1523 134.164 54.7188 134.648 54.3672C135.141 54.0078 135.754 53.7383 136.488 53.5586C137.223 53.3711 138.074 53.2773 139.043 53.2773H141ZM149.93 50.9453V61H146.543V48.3203H149.719L149.93 50.9453ZM149.461 54.2148H148.523C148.523 53.332 148.629 52.5195 148.84 51.7773C149.059 51.0273 149.375 50.3789 149.789 49.832C150.211 49.2773 150.73 48.8477 151.348 48.543C151.965 48.2383 152.68 48.0859 153.492 48.0859C154.055 48.0859 154.57 48.1719 155.039 48.3438C155.508 48.5078 155.91 48.7695 156.246 49.1289C156.59 49.4805 156.855 49.9414 157.043 50.5117C157.23 51.0742 157.324 51.75 157.324 52.5391V61H153.949V52.9141C153.949 52.3359 153.871 51.8906 153.715 51.5781C153.559 51.2656 153.336 51.0469 153.047 50.9219C152.766 50.7969 152.426 50.7344 152.027 50.7344C151.59 50.7344 151.207 50.8242 150.879 51.0039C150.559 51.1836 150.293 51.4336 150.082 51.7539C149.871 52.0664 149.715 52.4336 149.613 52.8555C149.512 53.2773 149.461 53.7305 149.461 54.2148ZM157.008 53.8281L155.801 53.9805C155.801 53.1523 155.902 52.3828 156.105 51.6719C156.316 50.9609 156.625 50.3359 157.031 49.7969C157.445 49.2578 157.957 48.8398 158.566 48.543C159.176 48.2383 159.879 48.0859 160.676 48.0859C161.285 48.0859 161.84 48.1758 162.34 48.3555C162.84 48.5273 163.266 48.8047 163.617 49.1875C163.977 49.5625 164.25 50.0547 164.438 50.6641C164.633 51.2734 164.73 52.0195 164.73 52.9023V61H161.344V52.9023C161.344 52.3164 161.266 51.8711 161.109 51.5664C160.961 51.2539 160.742 51.0391 160.453 50.9219C160.172 50.7969 159.836 50.7344 159.445 50.7344C159.039 50.7344 158.684 50.8164 158.379 50.9805C158.074 51.1367 157.82 51.3555 157.617 51.6367C157.414 51.918 157.262 52.2461 157.16 52.6211C157.059 52.9883 157.008 53.3906 157.008 53.8281ZM174.188 58.1406V52.4922C174.188 52.0859 174.121 51.7383 173.988 51.4492C173.855 51.1523 173.648 50.9219 173.367 50.7578C173.094 50.5938 172.738 50.5117 172.301 50.5117C171.926 50.5117 171.602 50.5781 171.328 50.7109C171.055 50.8359 170.844 51.0195 170.695 51.2617C170.547 51.4961 170.473 51.7734 170.473 52.0938H167.098C167.098 51.5547 167.223 51.043 167.473 50.5586C167.723 50.0742 168.086 49.6484 168.562 49.2812C169.039 48.9062 169.605 48.6133 170.262 48.4023C170.926 48.1914 171.668 48.0859 172.488 48.0859C173.473 48.0859 174.348 48.25 175.113 48.5781C175.879 48.9062 176.48 49.3984 176.918 50.0547C177.363 50.7109 177.586 51.5312 177.586 52.5156V57.9414C177.586 58.6367 177.629 59.207 177.715 59.6523C177.801 60.0898 177.926 60.4727 178.09 60.8008V61H174.68C174.516 60.6562 174.391 60.2266 174.305 59.7109C174.227 59.1875 174.188 58.6641 174.188 58.1406ZM174.633 53.2773L174.656 55.1875H172.77C172.324 55.1875 171.938 55.2383 171.609 55.3398C171.281 55.4414 171.012 55.5859 170.801 55.7734C170.59 55.9531 170.434 56.1641 170.332 56.4062C170.238 56.6484 170.191 56.9141 170.191 57.2031C170.191 57.4922 170.258 57.7539 170.391 57.9883C170.523 58.2148 170.715 58.3945 170.965 58.5273C171.215 58.6523 171.508 58.7148 171.844 58.7148C172.352 58.7148 172.793 58.6133 173.168 58.4102C173.543 58.207 173.832 57.957 174.035 57.6602C174.246 57.3633 174.355 57.082 174.363 56.8164L175.254 58.2461C175.129 58.5664 174.957 58.8984 174.738 59.2422C174.527 59.5859 174.258 59.9102 173.93 60.2148C173.602 60.5117 173.207 60.7578 172.746 60.9531C172.285 61.1406 171.738 61.2344 171.105 61.2344C170.301 61.2344 169.57 61.0742 168.914 60.7539C168.266 60.4258 167.75 59.9766 167.367 59.4062C166.992 58.8281 166.805 58.1719 166.805 57.4375C166.805 56.7734 166.93 56.1836 167.18 55.668C167.43 55.1523 167.797 54.7188 168.281 54.3672C168.773 54.0078 169.387 53.7383 170.121 53.5586C170.855 53.3711 171.707 53.2773 172.676 53.2773H174.633ZM182.871 43V44.7812C182.871 45.2891 182.773 45.8125 182.578 46.3516C182.391 46.8906 182.137 47.4023 181.816 47.8867C181.496 48.3633 181.145 48.7695 180.762 49.1055L179.18 48.1914C179.469 47.7305 179.715 47.2305 179.918 46.6914C180.121 46.1445 180.223 45.5117 180.223 44.793V43H182.871ZM189.879 57.4961C189.879 57.2539 189.809 57.0352 189.668 56.8398C189.527 56.6445 189.266 56.4648 188.883 56.3008C188.508 56.1289 187.965 55.9727 187.254 55.832C186.613 55.6914 186.016 55.5156 185.461 55.3047C184.914 55.0859 184.438 54.8242 184.031 54.5195C183.633 54.2148 183.32 53.8555 183.094 53.4414C182.867 53.0195 182.754 52.5391 182.754 52C182.754 51.4688 182.867 50.9688 183.094 50.5C183.328 50.0312 183.66 49.6172 184.09 49.2578C184.527 48.8906 185.059 48.6055 185.684 48.4023C186.316 48.1914 187.027 48.0859 187.816 48.0859C188.918 48.0859 189.863 48.2617 190.652 48.6133C191.449 48.9648 192.059 49.4492 192.48 50.0664C192.91 50.6758 193.125 51.3711 193.125 52.1523H189.75C189.75 51.8242 189.68 51.5312 189.539 51.2734C189.406 51.0078 189.195 50.8008 188.906 50.6523C188.625 50.4961 188.258 50.418 187.805 50.418C187.43 50.418 187.105 50.4844 186.832 50.6172C186.559 50.7422 186.348 50.9141 186.199 51.1328C186.059 51.3438 185.988 51.5781 185.988 51.8359C185.988 52.0312 186.027 52.207 186.105 52.3633C186.191 52.5117 186.328 52.6484 186.516 52.7734C186.703 52.8984 186.945 53.0156 187.242 53.125C187.547 53.2266 187.922 53.3203 188.367 53.4062C189.281 53.5938 190.098 53.8398 190.816 54.1445C191.535 54.4414 192.105 54.8477 192.527 55.3633C192.949 55.8711 193.16 56.5391 193.16 57.3672C193.16 57.9297 193.035 58.4453 192.785 58.9141C192.535 59.3828 192.176 59.793 191.707 60.1445C191.238 60.4883 190.676 60.7578 190.02 60.9531C189.371 61.1406 188.641 61.2344 187.828 61.2344C186.648 61.2344 185.648 61.0234 184.828 60.6016C184.016 60.1797 183.398 59.6445 182.977 58.9961C182.562 58.3398 182.355 57.668 182.355 56.9805H185.555C185.57 57.4414 185.688 57.8125 185.906 58.0938C186.133 58.375 186.418 58.5781 186.762 58.7031C187.113 58.8281 187.492 58.8906 187.898 58.8906C188.336 58.8906 188.699 58.832 188.988 58.7148C189.277 58.5898 189.496 58.4258 189.645 58.2227C189.801 58.0117 189.879 57.7695 189.879 57.4961ZM205.055 43.9375V61H201.539V43.9375H205.055ZM215.273 43.9375L208.512 52.3633L204.609 56.5586L203.977 53.2305L206.613 49.6211L210.961 43.9375H215.273ZM211.277 61L206.25 53.1133L208.852 50.9336L215.438 61H211.277ZM220.148 48.3203V61H216.762V48.3203H220.148ZM216.551 45.0156C216.551 44.5234 216.723 44.1172 217.066 43.7969C217.41 43.4766 217.871 43.3164 218.449 43.3164C219.02 43.3164 219.477 43.4766 219.82 43.7969C220.172 44.1172 220.348 44.5234 220.348 45.0156C220.348 45.5078 220.172 45.9141 219.82 46.2344C219.477 46.5547 219.02 46.7148 218.449 46.7148C217.871 46.7148 217.41 46.5547 217.066 46.2344C216.723 45.9141 216.551 45.5078 216.551 45.0156ZM229.148 48.3203V50.7109H221.766V48.3203H229.148ZM223.594 45.1914H226.969V57.1797C226.969 57.5469 227.016 57.8281 227.109 58.0234C227.211 58.2188 227.359 58.3555 227.555 58.4336C227.75 58.5039 227.996 58.5391 228.293 58.5391C228.504 58.5391 228.691 58.5312 228.855 58.5156C229.027 58.4922 229.172 58.4688 229.289 58.4453L229.301 60.9297C229.012 61.0234 228.699 61.0977 228.363 61.1523C228.027 61.207 227.656 61.2344 227.25 61.2344C226.508 61.2344 225.859 61.1133 225.305 60.8711C224.758 60.6211 224.336 60.2227 224.039 59.6758C223.742 59.1289 223.594 58.4102 223.594 57.5195V45.1914ZM236.309 58.5977C236.723 58.5977 237.09 58.5195 237.41 58.3633C237.73 58.1992 237.98 57.9727 238.16 57.6836C238.348 57.3867 238.445 57.0391 238.453 56.6406H241.629C241.621 57.5312 241.383 58.3242 240.914 59.0195C240.445 59.707 239.816 60.25 239.027 60.6484C238.238 61.0391 237.355 61.2344 236.379 61.2344C235.395 61.2344 234.535 61.0703 233.801 60.7422C233.074 60.4141 232.469 59.9609 231.984 59.3828C231.5 58.7969 231.137 58.1172 230.895 57.3438C230.652 56.5625 230.531 55.7266 230.531 54.8359V54.4961C230.531 53.5977 230.652 52.7617 230.895 51.9883C231.137 51.207 231.5 50.5273 231.984 49.9492C232.469 49.3633 233.074 48.9062 233.801 48.5781C234.527 48.25 235.379 48.0859 236.355 48.0859C237.395 48.0859 238.305 48.2852 239.086 48.6836C239.875 49.082 240.492 49.6523 240.938 50.3945C241.391 51.1289 241.621 52 241.629 53.0078H238.453C238.445 52.5859 238.355 52.2031 238.184 51.8594C238.02 51.5156 237.777 51.2422 237.457 51.0391C237.145 50.8281 236.758 50.7227 236.297 50.7227C235.805 50.7227 235.402 50.8281 235.09 51.0391C234.777 51.2422 234.535 51.5234 234.363 51.8828C234.191 52.2344 234.07 52.6367 234 53.0898C233.938 53.5352 233.906 54.0039 233.906 54.4961V54.8359C233.906 55.3281 233.938 55.8008 234 56.2539C234.062 56.707 234.18 57.1094 234.352 57.4609C234.531 57.8125 234.777 58.0898 235.09 58.293C235.402 58.4961 235.809 58.5977 236.309 58.5977ZM246.879 43V61H243.504V43H246.879ZM246.398 54.2148H245.473C245.48 53.332 245.598 52.5195 245.824 51.7773C246.051 51.0273 246.375 50.3789 246.797 49.832C247.219 49.2773 247.723 48.8477 248.309 48.543C248.902 48.2383 249.559 48.0859 250.277 48.0859C250.902 48.0859 251.469 48.1758 251.977 48.3555C252.492 48.5273 252.934 48.8086 253.301 49.1992C253.676 49.582 253.965 50.0859 254.168 50.7109C254.371 51.3359 254.473 52.0938 254.473 52.9844V61H251.074V52.9609C251.074 52.3984 250.992 51.957 250.828 51.6367C250.672 51.3086 250.441 51.0781 250.137 50.9453C249.84 50.8047 249.473 50.7344 249.035 50.7344C248.551 50.7344 248.137 50.8242 247.793 51.0039C247.457 51.1836 247.188 51.4336 246.984 51.7539C246.781 52.0664 246.633 52.4336 246.539 52.8555C246.445 53.2773 246.398 53.7305 246.398 54.2148ZM262.875 61.2344C261.891 61.2344 261.008 61.0781 260.227 60.7656C259.445 60.4453 258.781 60.0039 258.234 59.4414C257.695 58.8789 257.281 58.2266 256.992 57.4844C256.703 56.7344 256.559 55.9375 256.559 55.0938V54.625C256.559 53.6641 256.695 52.7852 256.969 51.9883C257.242 51.1914 257.633 50.5 258.141 49.9141C258.656 49.3281 259.281 48.8789 260.016 48.5664C260.75 48.2461 261.578 48.0859 262.5 48.0859C263.398 48.0859 264.195 48.2344 264.891 48.5312C265.586 48.8281 266.168 49.25 266.637 49.7969C267.113 50.3438 267.473 51 267.715 51.7656C267.957 52.5234 268.078 53.3672 268.078 54.2969V55.7031H258V53.4531H264.762V53.1953C264.762 52.7266 264.676 52.3086 264.504 51.9414C264.34 51.5664 264.09 51.2695 263.754 51.0508C263.418 50.832 262.988 50.7227 262.465 50.7227C262.02 50.7227 261.637 50.8203 261.316 51.0156C260.996 51.2109 260.734 51.4844 260.531 51.8359C260.336 52.1875 260.188 52.6016 260.086 53.0781C259.992 53.5469 259.945 54.0625 259.945 54.625V55.0938C259.945 55.6016 260.016 56.0703 260.156 56.5C260.305 56.9297 260.512 57.3008 260.777 57.6133C261.051 57.9258 261.379 58.168 261.762 58.3398C262.152 58.5117 262.594 58.5977 263.086 58.5977C263.695 58.5977 264.262 58.4805 264.785 58.2461C265.316 58.0039 265.773 57.6406 266.156 57.1562L267.797 58.9375C267.531 59.3203 267.168 59.6875 266.707 60.0391C266.254 60.3906 265.707 60.6797 265.066 60.9062C264.426 61.125 263.695 61.2344 262.875 61.2344ZM273.305 51.0273V61H269.93V48.3203H273.094L273.305 51.0273ZM272.812 54.2148H271.898C271.898 53.2773 272.02 52.4336 272.262 51.6836C272.504 50.9258 272.844 50.2812 273.281 49.75C273.719 49.2109 274.238 48.8008 274.84 48.5195C275.449 48.2305 276.129 48.0859 276.879 48.0859C277.473 48.0859 278.016 48.1719 278.508 48.3438C279 48.5156 279.422 48.7891 279.773 49.1641C280.133 49.5391 280.406 50.0352 280.594 50.6523C280.789 51.2695 280.887 52.0234 280.887 52.9141V61H277.488V52.9023C277.488 52.3398 277.41 51.9023 277.254 51.5898C277.098 51.2773 276.867 51.0586 276.562 50.9336C276.266 50.8008 275.898 50.7344 275.461 50.7344C275.008 50.7344 274.613 50.8242 274.277 51.0039C273.949 51.1836 273.676 51.4336 273.457 51.7539C273.246 52.0664 273.086 52.4336 272.977 52.8555C272.867 53.2773 272.812 53.7305 272.812 54.2148Z" fill="#888888"/>
<path d="M114.117 84.875H122.344V107.164C122.344 109.82 121.789 112.07 120.68 113.914C119.57 115.742 118.016 117.125 116.016 118.062C114.016 119 111.664 119.469 108.961 119.469C106.289 119.469 103.938 119 101.906 118.062C99.8906 117.125 98.3125 115.742 97.1719 113.914C96.0469 112.07 95.4844 109.82 95.4844 107.164V84.875H103.734V107.164C103.734 108.57 103.938 109.719 104.344 110.609C104.75 111.484 105.344 112.125 106.125 112.531C106.906 112.938 107.852 113.141 108.961 113.141C110.086 113.141 111.031 112.938 111.797 112.531C112.562 112.125 113.141 111.484 113.531 110.609C113.922 109.719 114.117 108.57 114.117 107.164V84.875ZM136.266 84.875V119H128.062V84.875H136.266ZM172.523 84.875H180.75V107.164C180.75 109.82 180.195 112.07 179.086 113.914C177.977 115.742 176.422 117.125 174.422 118.062C172.422 119 170.07 119.469 167.367 119.469C164.695 119.469 162.344 119 160.312 118.062C158.297 117.125 156.719 115.742 155.578 113.914C154.453 112.07 153.891 109.82 153.891 107.164V84.875H162.141V107.164C162.141 108.57 162.344 109.719 162.75 110.609C163.156 111.484 163.75 112.125 164.531 112.531C165.312 112.938 166.258 113.141 167.367 113.141C168.492 113.141 169.438 112.938 170.203 112.531C170.969 112.125 171.547 111.484 171.938 110.609C172.328 109.719 172.523 108.57 172.523 107.164V84.875ZM193.078 84.875L198.656 96.2188L204.234 84.875H213.609L204.094 101.797L213.867 119H204.398L198.656 107.445L192.914 119H183.422L193.219 101.797L183.68 84.875H193.078Z" fill="black"/>
<path d="M1134 0H1348C1356.28 0 1363 6.71573 1363 15V148C1363 156.284 1356.28 163 1348 163H1134V0Z" fill="#B20530"/>
<path d="M1248.5 111.917C1244.51 111.917 1240.55 111.13 1236.86 109.601C1233.17 108.073 1229.82 105.832 1226.99 103.008C1221.29 97.3036 1218.08 89.567 1218.08 81.5C1218.08 73.433 1221.29 65.6964 1226.99 59.9922C1232.7 54.2879 1240.43 51.0833 1248.5 51.0833C1265.23 51.0833 1278.92 63.25 1278.92 78.4583C1278.92 83.2985 1276.99 87.9405 1273.57 91.363C1270.15 94.7856 1265.51 96.7083 1260.67 96.7083H1255.19C1254.28 96.7083 1253.67 97.3167 1253.67 98.2292C1253.67 98.5333 1253.97 98.8375 1253.97 99.1417C1255.19 100.662 1255.8 102.487 1255.8 104.312C1256.1 108.571 1252.76 111.917 1248.5 111.917ZM1248.5 57.1667C1242.05 57.1667 1235.86 59.7303 1231.29 64.2937C1226.73 68.8571 1224.17 75.0464 1224.17 81.5C1224.17 87.9536 1226.73 94.1429 1231.29 98.7063C1235.86 103.27 1242.05 105.833 1248.5 105.833C1249.41 105.833 1250.02 105.225 1250.02 104.312C1250.02 103.704 1249.72 103.4 1249.72 103.096C1248.5 101.575 1247.89 100.054 1247.89 98.2292C1247.89 93.9708 1251.24 90.625 1255.5 90.625H1260.67C1263.89 90.625 1266.99 89.3432 1269.27 87.0615C1271.55 84.7798 1272.83 81.6851 1272.83 78.4583C1272.83 66.5958 1261.88 57.1667 1248.5 57.1667ZM1231.77 75.4167C1234.2 75.4167 1236.33 77.5458 1236.33 79.9792C1236.33 82.4125 1234.2 84.5417 1231.77 84.5417C1229.34 84.5417 1227.21 82.4125 1227.21 79.9792C1227.21 77.5458 1229.34 75.4167 1231.77 75.4167ZM1240.9 63.25C1243.33 63.25 1245.46 65.3792 1245.46 67.8125C1245.46 70.2458 1243.33 72.375 1240.9 72.375C1238.46 72.375 1236.33 70.2458 1236.33 67.8125C1236.33 65.3792 1238.46 63.25 1240.9 63.25ZM1256.1 63.25C1258.54 63.25 1260.67 65.3792 1260.67 67.8125C1260.67 70.2458 1258.54 72.375 1256.1 72.375C1253.67 72.375 1251.54 70.2458 1251.54 67.8125C1251.54 65.3792 1253.67 63.25 1256.1 63.25ZM1265.23 75.4167C1267.66 75.4167 1269.79 77.5458 1269.79 79.9792C1269.79 82.4125 1267.66 84.5417 1265.23 84.5417C1262.8 84.5417 1260.67 82.4125 1260.67 79.9792C1260.67 77.5458 1262.8 75.4167 1265.23 75.4167Z" fill="#FFD21C"/>
</svg>
