<svg width="1363" height="163" viewBox="0 0 1363 163" fill="none" xmlns="http://www.w3.org/2000/svg">
<path d="M0 15C0 6.71573 6.71573 0 15 0H37V163H15C6.71573 163 0 156.284 0 148V15Z" fill="#888888"/>
<rect width="1097" height="163" transform="translate(37)" fill="#F0F0F0"/>
<path d="M101.906 53.9219L94.3945 51.2383V48.0859L104.602 52.375V54.6367L101.906 53.9219ZM94.3945 56.1719L101.918 53.4297L104.602 52.7852V55.0352L94.3945 59.3242V56.1719ZM114.504 43.9375H117.48L121.863 56.4648L126.246 43.9375H129.223L123.059 61H120.668L114.504 43.9375ZM112.898 43.9375H115.863L116.402 56.1484V61H112.898V43.9375ZM127.863 43.9375H130.84V61H127.324V56.1484L127.863 43.9375ZM140.555 58.1406V52.4922C140.555 52.0859 140.488 51.7383 140.355 51.4492C140.223 51.1523 140.016 50.9219 139.734 50.7578C139.461 50.5938 139.105 50.5117 138.668 50.5117C138.293 50.5117 137.969 50.5781 137.695 50.7109C137.422 50.8359 137.211 51.0195 137.062 51.2617C136.914 51.4961 136.84 51.7734 136.84 52.0938H133.465C133.465 51.5547 133.59 51.043 133.84 50.5586C134.09 50.0742 134.453 49.6484 134.93 49.2812C135.406 48.9062 135.973 48.6133 136.629 48.4023C137.293 48.1914 138.035 48.0859 138.855 48.0859C139.84 48.0859 140.715 48.25 141.48 48.5781C142.246 48.9062 142.848 49.3984 143.285 50.0547C143.73 50.7109 143.953 51.5312 143.953 52.5156V57.9414C143.953 58.6367 143.996 59.207 144.082 59.6523C144.168 60.0898 144.293 60.4727 144.457 60.8008V61H141.047C140.883 60.6562 140.758 60.2266 140.672 59.7109C140.594 59.1875 140.555 58.6641 140.555 58.1406ZM141 53.2773L141.023 55.1875H139.137C138.691 55.1875 138.305 55.2383 137.977 55.3398C137.648 55.4414 137.379 55.5859 137.168 55.7734C136.957 55.9531 136.801 56.1641 136.699 56.4062C136.605 56.6484 136.559 56.9141 136.559 57.2031C136.559 57.4922 136.625 57.7539 136.758 57.9883C136.891 58.2148 137.082 58.3945 137.332 58.5273C137.582 58.6523 137.875 58.7148 138.211 58.7148C138.719 58.7148 139.16 58.6133 139.535 58.4102C139.91 58.207 140.199 57.957 140.402 57.6602C140.613 57.3633 140.723 57.082 140.73 56.8164L141.621 58.2461C141.496 58.5664 141.324 58.8984 141.105 59.2422C140.895 59.5859 140.625 59.9102 140.297 60.2148C139.969 60.5117 139.574 60.7578 139.113 60.9531C138.652 61.1406 138.105 61.2344 137.473 61.2344C136.668 61.2344 135.938 61.0742 135.281 60.7539C134.633 60.4258 134.117 59.9766 133.734 59.4062C133.359 58.8281 133.172 58.1719 133.172 57.4375C133.172 56.7734 133.297 56.1836 133.547 55.668C133.797 55.1523 134.164 54.7188 134.648 54.3672C135.141 54.0078 135.754 53.7383 136.488 53.5586C137.223 53.3711 138.074 53.2773 139.043 53.2773H141ZM149.93 50.9453V61H146.543V48.3203H149.719L149.93 50.9453ZM149.461 54.2148H148.523C148.523 53.332 148.629 52.5195 148.84 51.7773C149.059 51.0273 149.375 50.3789 149.789 49.832C150.211 49.2773 150.73 48.8477 151.348 48.543C151.965 48.2383 152.68 48.0859 153.492 48.0859C154.055 48.0859 154.57 48.1719 155.039 48.3438C155.508 48.5078 155.91 48.7695 156.246 49.1289C156.59 49.4805 156.855 49.9414 157.043 50.5117C157.23 51.0742 157.324 51.75 157.324 52.5391V61H153.949V52.9141C153.949 52.3359 153.871 51.8906 153.715 51.5781C153.559 51.2656 153.336 51.0469 153.047 50.9219C152.766 50.7969 152.426 50.7344 152.027 50.7344C151.59 50.7344 151.207 50.8242 150.879 51.0039C150.559 51.1836 150.293 51.4336 150.082 51.7539C149.871 52.0664 149.715 52.4336 149.613 52.8555C149.512 53.2773 149.461 53.7305 149.461 54.2148ZM157.008 53.8281L155.801 53.9805C155.801 53.1523 155.902 52.3828 156.105 51.6719C156.316 50.9609 156.625 50.3359 157.031 49.7969C157.445 49.2578 157.957 48.8398 158.566 48.543C159.176 48.2383 159.879 48.0859 160.676 48.0859C161.285 48.0859 161.84 48.1758 162.34 48.3555C162.84 48.5273 163.266 48.8047 163.617 49.1875C163.977 49.5625 164.25 50.0547 164.438 50.6641C164.633 51.2734 164.73 52.0195 164.73 52.9023V61H161.344V52.9023C161.344 52.3164 161.266 51.8711 161.109 51.5664C160.961 51.2539 160.742 51.0391 160.453 50.9219C160.172 50.7969 159.836 50.7344 159.445 50.7344C159.039 50.7344 158.684 50.8164 158.379 50.9805C158.074 51.1367 157.82 51.3555 157.617 51.6367C157.414 51.918 157.262 52.2461 157.16 52.6211C157.059 52.9883 157.008 53.3906 157.008 53.8281ZM174.188 58.1406V52.4922C174.188 52.0859 174.121 51.7383 173.988 51.4492C173.855 51.1523 173.648 50.9219 173.367 50.7578C173.094 50.5938 172.738 50.5117 172.301 50.5117C171.926 50.5117 171.602 50.5781 171.328 50.7109C171.055 50.8359 170.844 51.0195 170.695 51.2617C170.547 51.4961 170.473 51.7734 170.473 52.0938H167.098C167.098 51.5547 167.223 51.043 167.473 50.5586C167.723 50.0742 168.086 49.6484 168.562 49.2812C169.039 48.9062 169.605 48.6133 170.262 48.4023C170.926 48.1914 171.668 48.0859 172.488 48.0859C173.473 48.0859 174.348 48.25 175.113 48.5781C175.879 48.9062 176.48 49.3984 176.918 50.0547C177.363 50.7109 177.586 51.5312 177.586 52.5156V57.9414C177.586 58.6367 177.629 59.207 177.715 59.6523C177.801 60.0898 177.926 60.4727 178.09 60.8008V61H174.68C174.516 60.6562 174.391 60.2266 174.305 59.7109C174.227 59.1875 174.188 58.6641 174.188 58.1406ZM174.633 53.2773L174.656 55.1875H172.77C172.324 55.1875 171.938 55.2383 171.609 55.3398C171.281 55.4414 171.012 55.5859 170.801 55.7734C170.59 55.9531 170.434 56.1641 170.332 56.4062C170.238 56.6484 170.191 56.9141 170.191 57.2031C170.191 57.4922 170.258 57.7539 170.391 57.9883C170.523 58.2148 170.715 58.3945 170.965 58.5273C171.215 58.6523 171.508 58.7148 171.844 58.7148C172.352 58.7148 172.793 58.6133 173.168 58.4102C173.543 58.207 173.832 57.957 174.035 57.6602C174.246 57.3633 174.355 57.082 174.363 56.8164L175.254 58.2461C175.129 58.5664 174.957 58.8984 174.738 59.2422C174.527 59.5859 174.258 59.9102 173.93 60.2148C173.602 60.5117 173.207 60.7578 172.746 60.9531C172.285 61.1406 171.738 61.2344 171.105 61.2344C170.301 61.2344 169.57 61.0742 168.914 60.7539C168.266 60.4258 167.75 59.9766 167.367 59.4062C166.992 58.8281 166.805 58.1719 166.805 57.4375C166.805 56.7734 166.93 56.1836 167.18 55.668C167.43 55.1523 167.797 54.7188 168.281 54.3672C168.773 54.0078 169.387 53.7383 170.121 53.5586C170.855 53.3711 171.707 53.2773 172.676 53.2773H174.633ZM182.871 43V44.7812C182.871 45.2891 182.773 45.8125 182.578 46.3516C182.391 46.8906 182.137 47.4023 181.816 47.8867C181.496 48.3633 181.145 48.7695 180.762 49.1055L179.18 48.1914C179.469 47.7305 179.715 47.2305 179.918 46.6914C180.121 46.1445 180.223 45.5117 180.223 44.793V43H182.871ZM189.879 57.4961C189.879 57.2539 189.809 57.0352 189.668 56.8398C189.527 56.6445 189.266 56.4648 188.883 56.3008C188.508 56.1289 187.965 55.9727 187.254 55.832C186.613 55.6914 186.016 55.5156 185.461 55.3047C184.914 55.0859 184.438 54.8242 184.031 54.5195C183.633 54.2148 183.32 53.8555 183.094 53.4414C182.867 53.0195 182.754 52.5391 182.754 52C182.754 51.4688 182.867 50.9688 183.094 50.5C183.328 50.0312 183.66 49.6172 184.09 49.2578C184.527 48.8906 185.059 48.6055 185.684 48.4023C186.316 48.1914 187.027 48.0859 187.816 48.0859C188.918 48.0859 189.863 48.2617 190.652 48.6133C191.449 48.9648 192.059 49.4492 192.48 50.0664C192.91 50.6758 193.125 51.3711 193.125 52.1523H189.75C189.75 51.8242 189.68 51.5312 189.539 51.2734C189.406 51.0078 189.195 50.8008 188.906 50.6523C188.625 50.4961 188.258 50.418 187.805 50.418C187.43 50.418 187.105 50.4844 186.832 50.6172C186.559 50.7422 186.348 50.9141 186.199 51.1328C186.059 51.3438 185.988 51.5781 185.988 51.8359C185.988 52.0312 186.027 52.207 186.105 52.3633C186.191 52.5117 186.328 52.6484 186.516 52.7734C186.703 52.8984 186.945 53.0156 187.242 53.125C187.547 53.2266 187.922 53.3203 188.367 53.4062C189.281 53.5938 190.098 53.8398 190.816 54.1445C191.535 54.4414 192.105 54.8477 192.527 55.3633C192.949 55.8711 193.16 56.5391 193.16 57.3672C193.16 57.9297 193.035 58.4453 192.785 58.9141C192.535 59.3828 192.176 59.793 191.707 60.1445C191.238 60.4883 190.676 60.7578 190.02 60.9531C189.371 61.1406 188.641 61.2344 187.828 61.2344C186.648 61.2344 185.648 61.0234 184.828 60.6016C184.016 60.1797 183.398 59.6445 182.977 58.9961C182.562 58.3398 182.355 57.668 182.355 56.9805H185.555C185.57 57.4414 185.688 57.8125 185.906 58.0938C186.133 58.375 186.418 58.5781 186.762 58.7031C187.113 58.8281 187.492 58.8906 187.898 58.8906C188.336 58.8906 188.699 58.832 188.988 58.7148C189.277 58.5898 189.496 58.4258 189.645 58.2227C189.801 58.0117 189.879 57.7695 189.879 57.4961ZM205.055 43.9375V61H201.539V43.9375H205.055ZM215.273 43.9375L208.512 52.3633L204.609 56.5586L203.977 53.2305L206.613 49.6211L210.961 43.9375H215.273ZM211.277 61L206.25 53.1133L208.852 50.9336L215.438 61H211.277ZM220.148 48.3203V61H216.762V48.3203H220.148ZM216.551 45.0156C216.551 44.5234 216.723 44.1172 217.066 43.7969C217.41 43.4766 217.871 43.3164 218.449 43.3164C219.02 43.3164 219.477 43.4766 219.82 43.7969C220.172 44.1172 220.348 44.5234 220.348 45.0156C220.348 45.5078 220.172 45.9141 219.82 46.2344C219.477 46.5547 219.02 46.7148 218.449 46.7148C217.871 46.7148 217.41 46.5547 217.066 46.2344C216.723 45.9141 216.551 45.5078 216.551 45.0156ZM229.148 48.3203V50.7109H221.766V48.3203H229.148ZM223.594 45.1914H226.969V57.1797C226.969 57.5469 227.016 57.8281 227.109 58.0234C227.211 58.2188 227.359 58.3555 227.555 58.4336C227.75 58.5039 227.996 58.5391 228.293 58.5391C228.504 58.5391 228.691 58.5312 228.855 58.5156C229.027 58.4922 229.172 58.4688 229.289 58.4453L229.301 60.9297C229.012 61.0234 228.699 61.0977 228.363 61.1523C228.027 61.207 227.656 61.2344 227.25 61.2344C226.508 61.2344 225.859 61.1133 225.305 60.8711C224.758 60.6211 224.336 60.2227 224.039 59.6758C223.742 59.1289 223.594 58.4102 223.594 57.5195V45.1914ZM236.309 58.5977C236.723 58.5977 237.09 58.5195 237.41 58.3633C237.73 58.1992 237.98 57.9727 238.16 57.6836C238.348 57.3867 238.445 57.0391 238.453 56.6406H241.629C241.621 57.5312 241.383 58.3242 240.914 59.0195C240.445 59.707 239.816 60.25 239.027 60.6484C238.238 61.0391 237.355 61.2344 236.379 61.2344C235.395 61.2344 234.535 61.0703 233.801 60.7422C233.074 60.4141 232.469 59.9609 231.984 59.3828C231.5 58.7969 231.137 58.1172 230.895 57.3438C230.652 56.5625 230.531 55.7266 230.531 54.8359V54.4961C230.531 53.5977 230.652 52.7617 230.895 51.9883C231.137 51.207 231.5 50.5273 231.984 49.9492C232.469 49.3633 233.074 48.9062 233.801 48.5781C234.527 48.25 235.379 48.0859 236.355 48.0859C237.395 48.0859 238.305 48.2852 239.086 48.6836C239.875 49.082 240.492 49.6523 240.938 50.3945C241.391 51.1289 241.621 52 241.629 53.0078H238.453C238.445 52.5859 238.355 52.2031 238.184 51.8594C238.02 51.5156 237.777 51.2422 237.457 51.0391C237.145 50.8281 236.758 50.7227 236.297 50.7227C235.805 50.7227 235.402 50.8281 235.09 51.0391C234.777 51.2422 234.535 51.5234 234.363 51.8828C234.191 52.2344 234.07 52.6367 234 53.0898C233.938 53.5352 233.906 54.0039 233.906 54.4961V54.8359C233.906 55.3281 233.938 55.8008 234 56.2539C234.062 56.707 234.18 57.1094 234.352 57.4609C234.531 57.8125 234.777 58.0898 235.09 58.293C235.402 58.4961 235.809 58.5977 236.309 58.5977ZM246.879 43V61H243.504V43H246.879ZM246.398 54.2148H245.473C245.48 53.332 245.598 52.5195 245.824 51.7773C246.051 51.0273 246.375 50.3789 246.797 49.832C247.219 49.2773 247.723 48.8477 248.309 48.543C248.902 48.2383 249.559 48.0859 250.277 48.0859C250.902 48.0859 251.469 48.1758 251.977 48.3555C252.492 48.5273 252.934 48.8086 253.301 49.1992C253.676 49.582 253.965 50.0859 254.168 50.7109C254.371 51.3359 254.473 52.0938 254.473 52.9844V61H251.074V52.9609C251.074 52.3984 250.992 51.957 250.828 51.6367C250.672 51.3086 250.441 51.0781 250.137 50.9453C249.84 50.8047 249.473 50.7344 249.035 50.7344C248.551 50.7344 248.137 50.8242 247.793 51.0039C247.457 51.1836 247.188 51.4336 246.984 51.7539C246.781 52.0664 246.633 52.4336 246.539 52.8555C246.445 53.2773 246.398 53.7305 246.398 54.2148ZM262.875 61.2344C261.891 61.2344 261.008 61.0781 260.227 60.7656C259.445 60.4453 258.781 60.0039 258.234 59.4414C257.695 58.8789 257.281 58.2266 256.992 57.4844C256.703 56.7344 256.559 55.9375 256.559 55.0938V54.625C256.559 53.6641 256.695 52.7852 256.969 51.9883C257.242 51.1914 257.633 50.5 258.141 49.9141C258.656 49.3281 259.281 48.8789 260.016 48.5664C260.75 48.2461 261.578 48.0859 262.5 48.0859C263.398 48.0859 264.195 48.2344 264.891 48.5312C265.586 48.8281 266.168 49.25 266.637 49.7969C267.113 50.3438 267.473 51 267.715 51.7656C267.957 52.5234 268.078 53.3672 268.078 54.2969V55.7031H258V53.4531H264.762V53.1953C264.762 52.7266 264.676 52.3086 264.504 51.9414C264.34 51.5664 264.09 51.2695 263.754 51.0508C263.418 50.832 262.988 50.7227 262.465 50.7227C262.02 50.7227 261.637 50.8203 261.316 51.0156C260.996 51.2109 260.734 51.4844 260.531 51.8359C260.336 52.1875 260.188 52.6016 260.086 53.0781C259.992 53.5469 259.945 54.0625 259.945 54.625V55.0938C259.945 55.6016 260.016 56.0703 260.156 56.5C260.305 56.9297 260.512 57.3008 260.777 57.6133C261.051 57.9258 261.379 58.168 261.762 58.3398C262.152 58.5117 262.594 58.5977 263.086 58.5977C263.695 58.5977 264.262 58.4805 264.785 58.2461C265.316 58.0039 265.773 57.6406 266.156 57.1562L267.797 58.9375C267.531 59.3203 267.168 59.6875 266.707 60.0391C266.254 60.3906 265.707 60.6797 265.066 60.9062C264.426 61.125 263.695 61.2344 262.875 61.2344ZM273.305 51.0273V61H269.93V48.3203H273.094L273.305 51.0273ZM272.812 54.2148H271.898C271.898 53.2773 272.02 52.4336 272.262 51.6836C272.504 50.9258 272.844 50.2812 273.281 49.75C273.719 49.2109 274.238 48.8008 274.84 48.5195C275.449 48.2305 276.129 48.0859 276.879 48.0859C277.473 48.0859 278.016 48.1719 278.508 48.3438C279 48.5156 279.422 48.7891 279.773 49.1641C280.133 49.5391 280.406 50.0352 280.594 50.6523C280.789 51.2695 280.887 52.0234 280.887 52.9141V61H277.488V52.9023C277.488 52.3398 277.41 51.9023 277.254 51.5898C277.098 51.2773 276.867 51.0586 276.562 50.9336C276.266 50.8008 275.898 50.7344 275.461 50.7344C275.008 50.7344 274.613 50.8242 274.277 51.0039C273.949 51.1836 273.676 51.4336 273.457 51.7539C273.246 52.0664 273.086 52.4336 272.977 52.8555C272.867 53.2773 272.812 53.7305 272.812 54.2148Z" fill="#888888"/>
<path d="M110.062 92.0469L101.742 119H92.9062L105.445 84.875H111.047L110.062 92.0469ZM116.953 119L108.609 92.0469L107.531 84.875H113.203L125.812 119H116.953ZM116.625 106.273V112.625H99.1172V106.273H116.625ZM135.258 115.906L142.055 84.875H146.109L148.312 87.5234L141.07 119H136.594L135.258 115.906ZM133.453 84.875L139.195 116.141L137.719 119H132.539L125.297 84.875H133.453ZM152.039 115.977L157.734 84.875H165.867L158.625 119H153.469L152.039 115.977ZM149.039 84.875L156 116.094L154.594 119H150.117L142.711 87.4766L145.008 84.875H149.039ZM186.68 109.93C186.68 109.398 186.602 108.922 186.445 108.5C186.289 108.062 186 107.656 185.578 107.281C185.156 106.906 184.547 106.531 183.75 106.156C182.969 105.766 181.938 105.359 180.656 104.938C179.156 104.438 177.711 103.875 176.32 103.25C174.93 102.609 173.688 101.867 172.594 101.023C171.5 100.164 170.633 99.1641 169.992 98.0234C169.352 96.8672 169.031 95.5234 169.031 93.9922C169.031 92.5234 169.359 91.2031 170.016 90.0312C170.672 88.8438 171.586 87.8359 172.758 87.0078C173.945 86.1641 175.336 85.5234 176.93 85.0859C178.523 84.6328 180.266 84.4062 182.156 84.4062C184.656 84.4062 186.859 84.8438 188.766 85.7188C190.688 86.5781 192.188 87.8047 193.266 89.3984C194.359 90.9766 194.906 92.8438 194.906 95H186.727C186.727 94.1406 186.547 93.3828 186.188 92.7266C185.844 92.0703 185.32 91.5547 184.617 91.1797C183.914 90.8047 183.031 90.6172 181.969 90.6172C180.938 90.6172 180.07 90.7734 179.367 91.0859C178.664 91.3984 178.133 91.8203 177.773 92.3516C177.414 92.8672 177.234 93.4375 177.234 94.0625C177.234 94.5781 177.375 95.0469 177.656 95.4688C177.953 95.875 178.367 96.2578 178.898 96.6172C179.445 96.9766 180.102 97.3203 180.867 97.6484C181.648 97.9766 182.523 98.2969 183.492 98.6094C185.305 99.1875 186.914 99.8359 188.32 100.555C189.742 101.258 190.938 102.062 191.906 102.969C192.891 103.859 193.633 104.875 194.133 106.016C194.648 107.156 194.906 108.445 194.906 109.883C194.906 111.414 194.609 112.773 194.016 113.961C193.422 115.148 192.57 116.156 191.461 116.984C190.352 117.797 189.023 118.414 187.477 118.836C185.93 119.258 184.203 119.469 182.297 119.469C180.547 119.469 178.82 119.25 177.117 118.812C175.43 118.359 173.898 117.672 172.523 116.75C171.148 115.812 170.047 114.617 169.219 113.164C168.406 111.695 168 109.953 168 107.938H176.25C176.25 108.938 176.383 109.781 176.648 110.469C176.914 111.156 177.305 111.711 177.82 112.133C178.336 112.539 178.969 112.836 179.719 113.023C180.469 113.195 181.328 113.281 182.297 113.281C183.344 113.281 184.188 113.133 184.828 112.836C185.469 112.523 185.938 112.117 186.234 111.617C186.531 111.102 186.68 110.539 186.68 109.93ZM222.188 119H214.617L214.664 112.672H222.188C223.75 112.672 225.07 112.297 226.148 111.547C227.242 110.797 228.07 109.68 228.633 108.195C229.211 106.695 229.5 104.852 229.5 102.664V101.188C229.5 99.5469 229.336 98.1094 229.008 96.875C228.695 95.625 228.227 94.5859 227.602 93.7578C226.977 92.9141 226.195 92.2812 225.258 91.8594C224.336 91.4375 223.273 91.2266 222.07 91.2266H214.477V84.875H222.07C224.383 84.875 226.5 85.2734 228.422 86.0703C230.359 86.8516 232.031 87.9766 233.438 89.4453C234.859 90.8984 235.953 92.625 236.719 94.625C237.5 96.6094 237.891 98.8125 237.891 101.234V102.664C237.891 105.07 237.5 107.273 236.719 109.273C235.953 111.273 234.867 113 233.461 114.453C232.055 115.906 230.391 117.031 228.469 117.828C226.562 118.609 224.469 119 222.188 119ZM219.328 84.875V119H211.102V84.875H219.328ZM254.086 119.469C252.023 119.469 250.18 119.148 248.555 118.508C246.93 117.852 245.555 116.953 244.43 115.812C243.32 114.672 242.469 113.359 241.875 111.875C241.297 110.391 241.008 108.82 241.008 107.164V106.273C241.008 104.414 241.266 102.695 241.781 101.117C242.297 99.5234 243.062 98.1328 244.078 96.9453C245.094 95.7578 246.367 94.8359 247.898 94.1797C249.43 93.5078 251.211 93.1719 253.242 93.1719C255.039 93.1719 256.648 93.4609 258.07 94.0391C259.492 94.6172 260.695 95.4453 261.68 96.5234C262.68 97.6016 263.438 98.9062 263.953 100.438C264.484 101.969 264.75 103.688 264.75 105.594V108.805H244.031V103.859H257.039V103.25C257.055 102.406 256.906 101.688 256.594 101.094C256.297 100.5 255.859 100.047 255.281 99.7344C254.703 99.4219 254 99.2656 253.172 99.2656C252.312 99.2656 251.602 99.4531 251.039 99.8281C250.492 100.203 250.062 100.719 249.75 101.375C249.453 102.016 249.242 102.758 249.117 103.602C248.992 104.445 248.93 105.336 248.93 106.273V107.164C248.93 108.102 249.055 108.953 249.305 109.719C249.57 110.484 249.945 111.141 250.43 111.688C250.93 112.219 251.523 112.633 252.211 112.93C252.914 113.227 253.711 113.375 254.602 113.375C255.68 113.375 256.742 113.172 257.789 112.766C258.836 112.359 259.734 111.688 260.484 110.75L264.07 115.016C263.555 115.75 262.82 116.461 261.867 117.148C260.93 117.836 259.805 118.398 258.492 118.836C257.18 119.258 255.711 119.469 254.086 119.469ZM275.93 98.5156V128.75H268.031V93.6406H275.391L275.93 98.5156ZM291.492 106.016V106.508C291.492 108.352 291.281 110.062 290.859 111.641C290.438 113.219 289.812 114.594 288.984 115.766C288.156 116.938 287.125 117.852 285.891 118.508C284.672 119.148 283.258 119.469 281.648 119.469C280.133 119.469 278.828 119.133 277.734 118.461C276.641 117.789 275.727 116.859 274.992 115.672C274.258 114.484 273.664 113.125 273.211 111.594C272.758 110.062 272.398 108.445 272.133 106.742V106.109C272.398 104.281 272.758 102.586 273.211 101.023C273.664 99.4453 274.258 98.0703 274.992 96.8984C275.727 95.7266 276.633 94.8125 277.711 94.1562C278.805 93.5 280.109 93.1719 281.625 93.1719C283.234 93.1719 284.648 93.4766 285.867 94.0859C287.102 94.6953 288.133 95.5703 288.961 96.7109C289.805 97.8359 290.438 99.1875 290.859 100.766C291.281 102.344 291.492 104.094 291.492 106.016ZM283.594 106.508V106.016C283.594 105.031 283.523 104.133 283.383 103.32C283.242 102.492 283.016 101.773 282.703 101.164C282.406 100.555 282.008 100.086 281.508 99.7578C281.008 99.4297 280.391 99.2656 279.656 99.2656C278.812 99.2656 278.102 99.3984 277.523 99.6641C276.961 99.9141 276.508 100.305 276.164 100.836C275.836 101.352 275.602 102 275.461 102.781C275.336 103.547 275.281 104.445 275.297 105.477V107.398C275.266 108.586 275.383 109.633 275.648 110.539C275.914 111.43 276.375 112.125 277.031 112.625C277.688 113.125 278.578 113.375 279.703 113.375C280.453 113.375 281.078 113.203 281.578 112.859C282.078 112.5 282.477 112.008 282.773 111.383C283.07 110.742 283.281 110.008 283.406 109.18C283.531 108.352 283.594 107.461 283.594 106.508ZM303.352 83V119H295.43V83H303.352ZM307.242 106.578V106.086C307.242 104.227 307.508 102.516 308.039 100.953C308.57 99.375 309.352 98.0078 310.383 96.8516C311.414 95.6953 312.688 94.7969 314.203 94.1562C315.719 93.5 317.469 93.1719 319.453 93.1719C321.453 93.1719 323.211 93.5 324.727 94.1562C326.258 94.7969 327.539 95.6953 328.57 96.8516C329.602 98.0078 330.383 99.375 330.914 100.953C331.445 102.516 331.711 104.227 331.711 106.086V106.578C331.711 108.422 331.445 110.133 330.914 111.711C330.383 113.273 329.602 114.641 328.57 115.812C327.539 116.969 326.266 117.867 324.75 118.508C323.234 119.148 321.484 119.469 319.5 119.469C317.516 119.469 315.758 119.148 314.227 118.508C312.695 117.867 311.414 116.969 310.383 115.812C309.352 114.641 308.57 113.273 308.039 111.711C307.508 110.133 307.242 108.422 307.242 106.578ZM315.141 106.086V106.578C315.141 107.531 315.211 108.422 315.352 109.25C315.492 110.078 315.727 110.805 316.055 111.43C316.383 112.039 316.828 112.516 317.391 112.859C317.953 113.203 318.656 113.375 319.5 113.375C320.328 113.375 321.016 113.203 321.562 112.859C322.125 112.516 322.57 112.039 322.898 111.43C323.227 110.805 323.461 110.078 323.602 109.25C323.742 108.422 323.812 107.531 323.812 106.578V106.086C323.812 105.164 323.742 104.297 323.602 103.484C323.461 102.656 323.227 101.93 322.898 101.305C322.57 100.664 322.125 100.164 321.562 99.8047C321 99.4453 320.297 99.2656 319.453 99.2656C318.625 99.2656 317.93 99.4453 317.367 99.8047C316.82 100.164 316.383 100.664 316.055 101.305C315.727 101.93 315.492 102.656 315.352 103.484C315.211 104.297 315.141 105.164 315.141 106.086ZM342.633 116.023L349.195 93.6406H357.68L347.484 122.773C347.266 123.414 346.977 124.102 346.617 124.836C346.258 125.586 345.766 126.297 345.141 126.969C344.516 127.641 343.711 128.188 342.727 128.609C341.758 129.031 340.555 129.242 339.117 129.242C338.352 129.242 337.789 129.203 337.43 129.125C337.086 129.062 336.555 128.945 335.836 128.773V123.125C336.039 123.125 336.211 123.125 336.352 123.125C336.508 123.125 336.68 123.125 336.867 123.125C337.711 123.125 338.383 123.039 338.883 122.867C339.398 122.695 339.789 122.445 340.055 122.117C340.336 121.789 340.555 121.391 340.711 120.922L342.633 116.023ZM340.969 93.6406L345.961 111.383L346.828 119.75H341.531L332.508 93.6406H340.969ZM367.711 99.0078V119H359.812V93.6406H367.219L367.711 99.0078ZM366.75 105.453L364.945 105.5C364.945 103.719 365.156 102.078 365.578 100.578C366 99.0781 366.625 97.7734 367.453 96.6641C368.281 95.5547 369.297 94.6953 370.5 94.0859C371.719 93.4766 373.125 93.1719 374.719 93.1719C375.828 93.1719 376.836 93.3438 377.742 93.6875C378.648 94.0156 379.43 94.5391 380.086 95.2578C380.742 95.9609 381.242 96.8828 381.586 98.0234C381.945 99.1484 382.125 100.5 382.125 102.078V119H374.227V103.086C374.227 102.008 374.102 101.195 373.852 100.648C373.617 100.102 373.273 99.7344 372.82 99.5469C372.367 99.3594 371.812 99.2656 371.156 99.2656C370.469 99.2656 369.852 99.4219 369.305 99.7344C368.758 100.047 368.289 100.484 367.898 101.047C367.523 101.594 367.234 102.242 367.031 102.992C366.844 103.742 366.75 104.562 366.75 105.453ZM381.234 105.453L379.031 105.5C379.031 103.719 379.227 102.078 379.617 100.578C380.023 99.0781 380.625 97.7734 381.422 96.6641C382.234 95.5547 383.242 94.6953 384.445 94.0859C385.648 93.4766 387.047 93.1719 388.641 93.1719C389.797 93.1719 390.859 93.3438 391.828 93.6875C392.797 94.0312 393.633 94.5859 394.336 95.3516C395.039 96.1172 395.586 97.1328 395.977 98.3984C396.367 99.6484 396.562 101.195 396.562 103.039V119H388.641V103.039C388.641 101.992 388.516 101.203 388.266 100.672C388.031 100.125 387.688 99.7578 387.234 99.5703C386.781 99.3672 386.242 99.2656 385.617 99.2656C384.867 99.2656 384.219 99.4219 383.672 99.7344C383.125 100.047 382.664 100.484 382.289 101.047C381.93 101.594 381.664 102.242 381.492 102.992C381.32 103.742 381.234 104.562 381.234 105.453ZM413.367 119.469C411.305 119.469 409.461 119.148 407.836 118.508C406.211 117.852 404.836 116.953 403.711 115.812C402.602 114.672 401.75 113.359 401.156 111.875C400.578 110.391 400.289 108.82 400.289 107.164V106.273C400.289 104.414 400.547 102.695 401.062 101.117C401.578 99.5234 402.344 98.1328 403.359 96.9453C404.375 95.7578 405.648 94.8359 407.18 94.1797C408.711 93.5078 410.492 93.1719 412.523 93.1719C414.32 93.1719 415.93 93.4609 417.352 94.0391C418.773 94.6172 419.977 95.4453 420.961 96.5234C421.961 97.6016 422.719 98.9062 423.234 100.438C423.766 101.969 424.031 103.688 424.031 105.594V108.805H403.312V103.859H416.32V103.25C416.336 102.406 416.188 101.688 415.875 101.094C415.578 100.5 415.141 100.047 414.562 99.7344C413.984 99.4219 413.281 99.2656 412.453 99.2656C411.594 99.2656 410.883 99.4531 410.32 99.8281C409.773 100.203 409.344 100.719 409.031 101.375C408.734 102.016 408.523 102.758 408.398 103.602C408.273 104.445 408.211 105.336 408.211 106.273V107.164C408.211 108.102 408.336 108.953 408.586 109.719C408.852 110.484 409.227 111.141 409.711 111.688C410.211 112.219 410.805 112.633 411.492 112.93C412.195 113.227 412.992 113.375 413.883 113.375C414.961 113.375 416.023 113.172 417.07 112.766C418.117 112.359 419.016 111.688 419.766 110.75L423.352 115.016C422.836 115.75 422.102 116.461 421.148 117.148C420.211 117.836 419.086 118.398 417.773 118.836C416.461 119.258 414.992 119.469 413.367 119.469ZM435 99.0547V119H427.102V93.6406H434.508L435 99.0547ZM434.062 105.453L432.211 105.5C432.211 103.562 432.445 101.836 432.914 100.32C433.383 98.7891 434.047 97.4922 434.906 96.4297C435.766 95.3672 436.789 94.5625 437.977 94.0156C439.18 93.4531 440.516 93.1719 441.984 93.1719C443.156 93.1719 444.227 93.3438 445.195 93.6875C446.18 94.0312 447.023 94.5859 447.727 95.3516C448.445 96.1172 448.992 97.1328 449.367 98.3984C449.758 99.6484 449.953 101.195 449.953 103.039V119H442.008V103.016C442.008 102 441.867 101.227 441.586 100.695C441.305 100.148 440.898 99.7734 440.367 99.5703C439.836 99.3672 439.188 99.2656 438.422 99.2656C437.609 99.2656 436.922 99.4219 436.359 99.7344C435.797 100.047 435.344 100.484 435 101.047C434.672 101.594 434.43 102.242 434.273 102.992C434.133 103.742 434.062 104.562 434.062 105.453ZM467.695 93.6406V99.125H452.414V93.6406H467.695ZM455.625 87.3359H463.523V110.727C463.523 111.398 463.602 111.922 463.758 112.297C463.914 112.656 464.18 112.914 464.555 113.07C464.945 113.211 465.461 113.281 466.102 113.281C466.555 113.281 466.93 113.273 467.227 113.258C467.523 113.227 467.805 113.188 468.07 113.141V118.789C467.398 119.008 466.695 119.172 465.961 119.281C465.227 119.406 464.445 119.469 463.617 119.469C461.93 119.469 460.484 119.203 459.281 118.672C458.094 118.141 457.188 117.305 456.562 116.164C455.938 115.023 455.625 113.539 455.625 111.711V87.3359Z" fill="black"/>
<path d="M1134 0H1348C1356.28 0 1363 6.71573 1363 15V148C1363 156.284 1356.28 163 1348 163H1134V0Z" fill="#B20530"/>
<path d="M1212.5 117.5L1212.5 45.5L1284.5 45.5L1284.5 117.5L1212.5 117.5Z" fill="white" fill-opacity="0.01"/>
<path d="M1221.5 81.5125L1221.5 108.5L1275.5 108.5L1275.5 81.5" stroke="white" stroke-width="7.24" stroke-linecap="round" stroke-linejoin="round"/>
<path d="M1262 68L1248.5 54.5L1235 68" stroke="white" stroke-width="7.24" stroke-linecap="round" stroke-linejoin="round"/>
<path d="M1248.49 93.5L1248.49 54.5" stroke="white" stroke-width="7.24" stroke-linecap="round" stroke-linejoin="round"/>
</svg>
